<svg width="32" height="32" viewBox="0 0 32 32" fill="none" xmlns="http://www.w3.org/2000/svg">
<circle cx="16" cy="16" r="16" fill="#FAFAFA"/>
<mask id="mask0_6963_107" style="mask-type:alpha" maskUnits="userSpaceOnUse" x="7" y="7" width="18" height="18">
<rect x="7" y="7" width="18" height="18" fill="#D9D9D9"/>
</mask>
<g mask="url(#mask0_6963_107)">
<path d="M15.25 23.2938V17.5852C15.25 16.8711 14.8692 16.2111 14.251 15.8537L9.25 12.9625V18.9813C9.25 19.2563 9.31563 19.5063 9.44688 19.7313C9.57812 19.9563 9.7625 20.1375 10 20.275L15.25 23.2938ZM16.75 23.2938L22 20.275C22.2375 20.1375 22.4219 19.9563 22.5531 19.7313C22.6844 19.5063 22.75 19.2563 22.75 18.9813V12.9625L17.749 15.8537C17.1308 16.2111 16.75 16.8711 16.75 17.5852V23.2938ZM19.7313 12.9812L21.9438 11.6875L16.75 8.70625C16.5125 8.56875 16.2625 8.5 16 8.5C15.7375 8.5 15.4875 8.56875 15.25 8.70625L13.7688 9.55L19.7313 12.9812ZM15.503 14.8515C15.8108 15.0286 16.1895 15.0292 16.4979 14.853L18.2313 13.8625L12.2875 10.4125L10.0375 11.7063L15.503 14.8515Z" fill="#C7CBDB"/>
</g>
</svg>
