<svg width="267" height="58" viewBox="0 0 267 58" fill="none" xmlns="http://www.w3.org/2000/svg">
<circle cx="27" cy="27" r="27" fill="#726ACA"/>
<path opacity="0.7" d="M20.3334 42.9005V35.6667C20.3334 35.1144 20.7811 34.6667 21.3334 34.6667H32.6667C33.219 34.6667 33.6667 35.1144 33.6667 35.6667V42.9005C33.6667 43.6778 32.8187 44.1579 32.1522 43.758L27.5145 40.9754C27.1979 40.7854 26.8022 40.7854 26.4855 40.9754L21.8479 43.758C21.1813 44.1579 20.3334 43.6778 20.3334 42.9005Z" fill="white"/>
<circle cx="26.8301" cy="24.4968" r="13.1634" fill="white"/>
<path d="M26.6413 18.7268C26.7881 18.4295 27.212 18.4295 27.3587 18.7268L28.8663 21.7814C28.9245 21.8994 29.0371 21.9813 29.1674 22.0002L32.5384 22.49C32.8664 22.5377 32.9974 22.9409 32.76 23.1723L30.3208 25.5499C30.2265 25.6418 30.1835 25.7742 30.2058 25.904L30.7816 29.2613C30.8376 29.5881 30.4947 29.8372 30.2012 29.683L27.1862 28.0979C27.0696 28.0366 26.9304 28.0366 26.8139 28.0979L23.7989 29.683C23.5054 29.8372 23.1624 29.5881 23.2185 29.2613L23.7943 25.904C23.8166 25.7742 23.7735 25.6418 23.6793 25.5499L21.24 23.1723C21.0026 22.9409 21.1336 22.5377 21.4617 22.49L24.8326 22.0002C24.9629 21.9813 25.0756 21.8994 25.1338 21.7814L26.6413 18.7268Z" fill="#726ACA"/>
<path d="M93.3125 0.65625C93.5781 0.65625 93.8633 0.6875 94.168 0.75C94.4805 0.804688 94.7695 0.902344 95.0352 1.04297C95.3008 1.17578 95.5195 1.35938 95.6914 1.59375C95.8633 1.82031 95.9492 2.10547 95.9492 2.44922C95.9492 2.87109 95.8242 3.25391 95.5742 3.59766C95.332 3.94141 94.9883 4.23828 94.543 4.48828C94.0977 4.73047 93.5625 4.92188 92.9375 5.0625C92.3203 5.19531 91.6367 5.26172 90.8867 5.26172C90.043 5.26172 89.1289 5.20312 88.1445 5.08594C87.9648 5.64844 87.8281 6.27734 87.7344 6.97266C87.6484 7.66797 87.6016 8.44141 87.5938 9.29297C87.8906 9.28516 88.1914 9.28125 88.4961 9.28125C88.8086 9.27344 89.1289 9.26953 89.457 9.26953C89.8945 9.26953 90.3359 9.27734 90.7812 9.29297C91.2266 9.30078 91.6758 9.3125 92.1289 9.32812C92.2617 9.33594 92.3633 9.38672 92.4336 9.48047C92.5117 9.56641 92.5508 9.66797 92.5508 9.78516C92.5508 9.91016 92.5078 10.0117 92.4219 10.0898C92.3359 10.168 92.2344 10.207 92.1172 10.207C91.6719 10.207 91.2266 10.1992 90.7812 10.1836C90.3438 10.168 89.9102 10.1602 89.4805 10.1602C89.1523 10.1602 88.832 10.1641 88.5195 10.1719C88.207 10.1719 87.8984 10.1758 87.5938 10.1836C87.5938 10.293 87.5938 10.3984 87.5938 10.5C87.6016 10.6016 87.6055 10.707 87.6055 10.8164C87.6055 12.0352 87.4219 13.1211 87.0547 14.0742C86.6875 15.0195 86.1484 15.8164 85.4375 16.4648C84.7344 17.1133 83.8672 17.6055 82.8359 17.9414C81.8047 18.2773 80.6211 18.4453 79.2852 18.4453C78.3008 18.4453 77.4258 18.3555 76.6602 18.1758C75.9023 18.0039 75.2344 17.7734 74.6562 17.4844C74.0859 17.1953 73.5938 16.8711 73.1797 16.5117C72.7734 16.1445 72.4336 15.7773 72.1602 15.4102C71.8867 15.0352 71.668 14.6758 71.5039 14.332C71.3398 13.9805 71.2188 13.6797 71.1406 13.4297C71.1328 13.4062 71.125 13.3867 71.1172 13.3711C71.1172 13.3477 71.1172 13.3242 71.1172 13.3008C71.1172 13.1836 71.1602 13.082 71.2461 12.9961C71.332 12.9023 71.4414 12.8555 71.5742 12.8555C71.668 12.8555 71.75 12.8828 71.8203 12.9375C71.8984 12.9922 71.9531 13.0664 71.9844 13.1602C72.0547 13.3789 72.1602 13.6406 72.3008 13.9453C72.4414 14.25 72.6328 14.5664 72.875 14.8945C73.125 15.2148 73.4297 15.5352 73.7891 15.8555C74.1562 16.1758 74.5977 16.4609 75.1133 16.7109C75.6367 16.9609 76.2383 17.1641 76.918 17.3203C77.6055 17.4766 78.3945 17.5547 79.2852 17.5547C81.7383 17.5547 83.5898 16.9844 84.8398 15.8438C86.0977 14.7031 86.7266 13.0195 86.7266 10.793C86.7266 10.6992 86.7227 10.6055 86.7148 10.5117C86.7148 10.4102 86.7148 10.3125 86.7148 10.2188C85.9258 10.25 85.1992 10.2891 84.5352 10.3359C83.8711 10.375 83.2891 10.418 82.7891 10.4648C82.2969 10.5039 81.8984 10.5391 81.5938 10.5703C81.2891 10.5938 81.1016 10.6055 81.0312 10.6055C80.8984 10.6055 80.7812 10.5703 80.6797 10.5C80.5781 10.4219 80.5273 10.3086 80.5273 10.1602C80.5273 10.0508 80.5664 9.95703 80.6445 9.87891C80.7227 9.79297 80.8164 9.74219 80.9258 9.72656C80.9336 9.72656 81.082 9.71094 81.3711 9.67969C81.668 9.64844 82.0742 9.61328 82.5898 9.57422C83.1055 9.52734 83.7148 9.48438 84.418 9.44531C85.1211 9.39844 85.8867 9.35938 86.7148 9.32812C86.7305 7.60156 86.9102 6.14844 87.2539 4.96875C86.4023 4.84375 85.5352 4.69531 84.6523 4.52344C83.7695 4.34375 82.8906 4.15625 82.0156 3.96094C81.1406 3.76562 80.2773 3.57422 79.4258 3.38672C78.582 3.19141 77.7695 3.01562 76.9883 2.85938C76.207 2.70313 75.4727 2.57812 74.7852 2.48438C74.0977 2.39062 73.4727 2.34375 72.9102 2.34375C72.1211 2.34375 71.3867 2.42578 70.707 2.58984C70.0273 2.74609 69.4375 2.97656 68.9375 3.28125C68.4453 3.58594 68.0547 3.96094 67.7656 4.40625C67.4844 4.84375 67.3438 5.34375 67.3438 5.90625C67.3438 6.27344 67.4102 6.60547 67.543 6.90234C67.6836 7.19141 67.8398 7.44141 68.0117 7.65234C68.1836 7.85547 68.3438 8.01562 68.4922 8.13281C68.6406 8.24219 68.7227 8.30078 68.7383 8.30859C68.8086 8.34766 68.8594 8.40234 68.8906 8.47266C68.9219 8.54297 68.9375 8.61328 68.9375 8.68359C68.9375 8.81641 68.8906 8.92578 68.7969 9.01172C68.7109 9.08984 68.6133 9.12891 68.5039 9.12891C68.418 9.12891 68.3359 9.10156 68.2578 9.04688C68.0703 8.92188 67.8711 8.75781 67.6602 8.55469C67.4492 8.35156 67.2539 8.12109 67.0742 7.86328C66.9023 7.59766 66.7578 7.30078 66.6406 6.97266C66.5234 6.64453 66.4648 6.28906 66.4648 5.90625C66.4648 5.20312 66.6289 4.57813 66.957 4.03125C67.293 3.48437 67.75 3.01953 68.3281 2.63672C68.9062 2.25391 69.5859 1.96484 70.3672 1.76953C71.1562 1.56641 72.0078 1.46484 72.9219 1.46484C73.4609 1.46484 74.0742 1.51562 74.7617 1.61719C75.4492 1.71094 76.1875 1.83594 76.9766 1.99219C77.7734 2.14844 78.6055 2.32422 79.4727 2.51953C80.3477 2.71484 81.2383 2.91406 82.1445 3.11719C83.0508 3.3125 83.9609 3.5 84.875 3.67969C85.7891 3.85937 86.6836 4.01172 87.5586 4.13672C87.7773 3.52734 88.0898 3.00391 88.4961 2.56641C88.9102 2.12109 89.3789 1.75781 89.9023 1.47656C90.4258 1.19531 90.9805 0.988281 91.5664 0.855469C92.1602 0.722656 92.7422 0.65625 93.3125 0.65625ZM95.0586 2.42578C95.0586 2.23828 94.9961 2.08984 94.8711 1.98047C94.7539 1.86328 94.6055 1.77344 94.4258 1.71094C94.2461 1.64062 94.0547 1.59375 93.8516 1.57031C93.6562 1.54688 93.4766 1.53516 93.3125 1.53516C92.9375 1.53516 92.5195 1.57422 92.0586 1.65234C91.6055 1.73047 91.1523 1.87109 90.6992 2.07422C90.2539 2.27734 89.832 2.55469 89.4336 2.90625C89.043 3.25781 88.7227 3.70703 88.4727 4.25391C89.3398 4.34766 90.1406 4.39453 90.875 4.39453C91.4766 4.39453 92.0312 4.34766 92.5391 4.25391C93.0547 4.15234 93.4961 4.01563 93.8633 3.84375C94.2383 3.67187 94.5312 3.46484 94.7422 3.22266C94.9531 2.98047 95.0586 2.71484 95.0586 2.42578ZM94.1094 13.1836C94.0781 13.3945 94.0391 13.5938 93.9922 13.7812C93.9453 13.9609 93.8984 14.1211 93.8516 14.2617C93.8125 14.3945 93.7773 14.5039 93.7461 14.5898C93.7148 14.6758 93.6953 14.7227 93.6875 14.7305C93.6094 14.9102 93.4727 15 93.2773 15C93.168 15 93.0664 14.9609 92.9727 14.8828C92.8789 14.7969 92.832 14.6914 92.832 14.5664C92.832 14.5195 92.8398 14.4844 92.8555 14.4609C92.8711 14.4375 92.8945 14.3906 92.9258 14.3203C92.957 14.25 92.9961 14.1328 93.043 13.9688C93.0898 13.8047 93.1484 13.5508 93.2188 13.207C93.0859 13.207 92.9492 13.2031 92.8086 13.1953C92.668 13.1875 92.5391 13.1602 92.4219 13.1133C92.2969 13.0664 92.1953 12.9922 92.1172 12.8906C92.0391 12.7891 92 12.6484 92 12.4688C92 12.3359 92.0391 12.1562 92.1172 11.9297C92.1875 11.7031 92.2852 11.4805 92.4102 11.2617C92.5352 11.043 92.6758 10.8555 92.832 10.6992C92.9883 10.5352 93.1445 10.4531 93.3008 10.4531C93.4805 10.4531 93.625 10.5195 93.7344 10.6523C93.8516 10.7852 93.9414 10.9492 94.0039 11.1445C94.0664 11.332 94.1094 11.5312 94.1328 11.7422C94.1641 11.9531 94.1797 12.1367 94.1797 12.293C94.3125 12.293 94.4414 12.293 94.5664 12.293C94.6992 12.2852 94.8242 12.2812 94.9414 12.2812C95.3867 12.2812 95.7266 12.3789 95.9609 12.5742C96.1953 12.7695 96.3125 13.0898 96.3125 13.5352C96.3125 13.7148 96.3008 13.9023 96.2773 14.0977C96.2539 14.293 96.2266 14.4961 96.1953 14.707C96.1641 14.9102 96.1367 15.1133 96.1133 15.3164C96.0898 15.5195 96.0781 15.7188 96.0781 15.9141C96.0781 16.1953 96.1172 16.4297 96.1953 16.6172C96.2734 16.7969 96.3711 16.9414 96.4883 17.0508C96.6055 17.1602 96.7305 17.2383 96.8633 17.2852C96.9961 17.3242 97.1172 17.3438 97.2266 17.3438C97.5625 17.3438 97.8789 17.2344 98.1758 17.0156C98.4727 16.7969 98.7461 16.5352 98.9961 16.2305C99.2461 15.918 99.4688 15.5898 99.6641 15.2461C99.8672 14.9023 100.035 14.6016 100.168 14.3438C100.207 14.2734 100.262 14.2188 100.332 14.1797C100.402 14.1406 100.477 14.1211 100.555 14.1211C100.695 14.1211 100.805 14.168 100.883 14.2617C100.961 14.3477 101 14.4453 101 14.5547C101 14.6328 100.984 14.7031 100.953 14.7656C100.773 15.0859 100.562 15.4492 100.32 15.8555C100.086 16.2539 99.8164 16.6289 99.5117 16.9805C99.207 17.332 98.8633 17.6289 98.4805 17.8711C98.1055 18.1133 97.6914 18.2344 97.2383 18.2344C96.957 18.2344 96.6914 18.1797 96.4414 18.0703C96.1914 17.9688 95.9727 17.8203 95.7852 17.625C95.6055 17.4219 95.4609 17.1758 95.3516 16.8867C95.2422 16.5898 95.1875 16.2578 95.1875 15.8906C95.1875 15.5 95.2266 15.1133 95.3047 14.7305C95.3828 14.3398 95.4219 13.9688 95.4219 13.6172C95.4219 13.4688 95.3867 13.3594 95.3164 13.2891C95.2539 13.2109 95.1094 13.1719 94.8828 13.1719C94.7734 13.1719 94.6523 13.1719 94.5195 13.1719C94.3945 13.1719 94.2578 13.1758 94.1094 13.1836ZM93.3242 12.3164C93.3242 12.2617 93.3203 12.1914 93.3125 12.1055C93.3125 12.0117 93.3047 11.9219 93.2891 11.8359C93.2812 11.75 93.2656 11.6758 93.2422 11.6133C93.2266 11.5508 93.207 11.5195 93.1836 11.5195C93.1602 11.5195 93.1289 11.5508 93.0898 11.6133C93.0586 11.668 93.0234 11.7383 92.9844 11.8242C92.9453 11.9023 92.9102 11.9883 92.8789 12.082C92.8477 12.1758 92.8242 12.2539 92.8086 12.3164H93.3242ZM105.57 16.7109C105.375 16.7109 105.203 16.6953 105.055 16.6641C104.938 16.8984 104.797 17.1172 104.633 17.3203C104.469 17.5156 104.277 17.6875 104.059 17.8359C103.848 17.9844 103.609 18.1016 103.344 18.1875C103.078 18.2734 102.789 18.3164 102.477 18.3164C102.109 18.3164 101.773 18.25 101.469 18.1172C101.164 17.9922 100.898 17.8164 100.672 17.5898C100.445 17.3555 100.27 17.0781 100.145 16.7578C100.02 16.4297 99.957 16.0703 99.957 15.6797C99.957 15.1797 100.047 14.7461 100.227 14.3789C100.406 14.0039 100.613 13.6953 100.848 13.4531C101.082 13.2031 101.316 13.0195 101.551 12.9023C101.785 12.7773 101.961 12.7148 102.078 12.7148C102.211 12.7148 102.309 12.75 102.371 12.8203C102.441 12.8906 102.477 12.9844 102.477 13.1016C102.477 13.2344 102.434 13.3359 102.348 13.4062C102.27 13.4688 102.168 13.5312 102.043 13.5938C101.918 13.6562 101.785 13.7461 101.645 13.8633C101.504 13.9727 101.371 14.1133 101.246 14.2852C101.129 14.457 101.031 14.6602 100.953 14.8945C100.875 15.1289 100.836 15.3906 100.836 15.6797C100.836 15.9375 100.875 16.1797 100.953 16.4062C101.031 16.625 101.145 16.8164 101.293 16.9805C101.441 17.1367 101.617 17.2617 101.82 17.3555C102.023 17.4414 102.25 17.4844 102.5 17.4844C102.945 17.4844 103.312 17.3828 103.602 17.1797C103.898 16.9688 104.125 16.7031 104.281 16.3828C103.82 16.1406 103.441 15.7969 103.145 15.3516C102.848 14.9062 102.699 14.4062 102.699 13.8516C102.699 13.4062 102.805 13.043 103.016 12.7617C103.234 12.4805 103.52 12.3398 103.871 12.3398C104.082 12.3398 104.281 12.3906 104.469 12.4922C104.656 12.5938 104.82 12.7539 104.961 12.9727C105.109 13.1914 105.227 13.4727 105.312 13.8164C105.398 14.1602 105.441 14.5703 105.441 15.0469C105.441 15.2969 105.41 15.5586 105.348 15.832C105.395 15.8398 105.441 15.8438 105.488 15.8438C105.535 15.8438 105.586 15.8438 105.641 15.8438C105.906 15.8438 106.145 15.8125 106.355 15.75C106.566 15.6875 106.758 15.5938 106.93 15.4688C107.102 15.3438 107.254 15.1836 107.387 14.9883C107.527 14.793 107.66 14.5664 107.785 14.3086C107.809 14.2617 107.859 14.2188 107.938 14.1797C108.016 14.1328 108.094 14.1094 108.172 14.1094C108.273 14.1094 108.367 14.1523 108.453 14.2383C108.547 14.3164 108.594 14.4219 108.594 14.5547C108.594 14.6172 108.578 14.6875 108.547 14.7656C108.516 14.8359 108.484 14.9023 108.453 14.9648C108.32 15.1992 108.164 15.4258 107.984 15.6445C107.812 15.8555 107.605 16.043 107.363 16.207C107.129 16.3633 106.863 16.4883 106.566 16.582C106.27 16.6758 105.938 16.7188 105.57 16.7109ZM103.566 13.7578C103.566 13.9062 103.586 14.0625 103.625 14.2266C103.664 14.3906 103.723 14.5547 103.801 14.7188C103.887 14.875 103.988 15.0273 104.105 15.1758C104.23 15.3164 104.375 15.4375 104.539 15.5391C104.562 15.375 104.574 15.2148 104.574 15.0586C104.574 14.8477 104.559 14.6328 104.527 14.4141C104.496 14.1953 104.449 13.9961 104.387 13.8164C104.332 13.6289 104.262 13.4805 104.176 13.3711C104.09 13.2539 103.988 13.1953 103.871 13.1953C103.824 13.1953 103.762 13.2305 103.684 13.3008C103.605 13.3711 103.566 13.5234 103.566 13.7578ZM110.469 16.957C110.586 16.7227 110.734 16.4336 110.914 16.0898C111.102 15.7383 111.293 15.3867 111.488 15.0352C111.691 14.6836 111.887 14.3516 112.074 14.0391C112.27 13.7266 112.434 13.4883 112.566 13.3242C112.793 13.0508 113.027 12.8555 113.27 12.7383C113.512 12.6211 113.734 12.5625 113.938 12.5625C114.141 12.5625 114.312 12.6055 114.453 12.6914C114.602 12.7773 114.723 12.8945 114.816 13.043C114.91 13.1836 114.98 13.3516 115.027 13.5469C115.074 13.7344 115.098 13.9375 115.098 14.1562C115.098 14.2812 115.09 14.4453 115.074 14.6484C115.066 14.8516 115.055 15.0703 115.039 15.3047C115.031 15.5391 115.02 15.7812 115.004 16.0312C114.996 16.2812 114.988 16.5156 114.98 16.7344C115.098 16.5 115.23 16.2422 115.379 15.9609C115.527 15.6719 115.676 15.3867 115.824 15.1055C115.98 14.8242 116.129 14.5625 116.27 14.3203C116.41 14.0703 116.539 13.8672 116.656 13.7109C116.992 13.25 117.305 12.9414 117.594 12.7852C117.891 12.6289 118.152 12.5508 118.379 12.5508C118.645 12.5508 118.863 12.6016 119.035 12.7031C119.207 12.7969 119.34 12.9219 119.434 13.0781C119.535 13.2266 119.605 13.3945 119.645 13.582C119.684 13.7695 119.703 13.9492 119.703 14.1211C119.703 14.3867 119.684 14.6641 119.645 14.9531C119.605 15.2422 119.586 15.5859 119.586 15.9844C119.586 16.1484 119.594 16.3125 119.609 16.4766C119.625 16.6406 119.656 16.7852 119.703 16.9102C119.758 17.0352 119.84 17.1367 119.949 17.2148C120.059 17.293 120.207 17.332 120.395 17.332C120.598 17.332 120.797 17.2812 120.992 17.1797C121.188 17.0703 121.375 16.9297 121.555 16.7578C121.734 16.5859 121.902 16.3906 122.059 16.1719C122.223 15.9531 122.371 15.7344 122.504 15.5156C122.637 15.2969 122.754 15.0898 122.855 14.8945C122.957 14.6914 123.039 14.5195 123.102 14.3789C123.141 14.293 123.195 14.2266 123.266 14.1797C123.336 14.1328 123.414 14.1094 123.5 14.1094C123.633 14.1094 123.738 14.1602 123.816 14.2617C123.902 14.3555 123.945 14.457 123.945 14.5664C123.945 14.6211 123.934 14.6758 123.91 14.7305C123.879 14.793 123.816 14.9258 123.723 15.1289C123.629 15.3242 123.504 15.5508 123.348 15.8086C123.191 16.0586 123.008 16.3242 122.797 16.6055C122.594 16.8867 122.367 17.1484 122.117 17.3906C121.867 17.625 121.598 17.8203 121.309 17.9766C121.02 18.125 120.715 18.1992 120.395 18.1992C120.051 18.1992 119.77 18.1367 119.551 18.0117C119.34 17.8945 119.168 17.7344 119.035 17.5312C118.91 17.3281 118.824 17.0938 118.777 16.8281C118.73 16.5625 118.707 16.2852 118.707 15.9961C118.707 15.6133 118.727 15.2617 118.766 14.9414C118.805 14.6133 118.824 14.3594 118.824 14.1797C118.824 13.9844 118.805 13.8359 118.766 13.7344C118.734 13.6328 118.691 13.5625 118.637 13.5234C118.59 13.4766 118.543 13.4531 118.496 13.4531C118.449 13.4453 118.414 13.4414 118.391 13.4414C118.203 13.4414 118.004 13.5469 117.793 13.7578C117.59 13.9609 117.379 14.2344 117.16 14.5781C116.941 14.9219 116.715 15.3125 116.48 15.75C116.254 16.1875 116.023 16.6328 115.789 17.0859C115.656 17.3359 115.543 17.543 115.449 17.707C115.363 17.8711 115.277 18 115.191 18.0938C115.113 18.1875 115.035 18.2539 114.957 18.293C114.879 18.332 114.793 18.3516 114.699 18.3516C114.496 18.3516 114.34 18.2812 114.23 18.1406C114.129 18 114.078 17.8164 114.078 17.5898C114.078 17.4727 114.082 17.3164 114.09 17.1211C114.098 16.9258 114.105 16.7109 114.113 16.4766C114.121 16.2422 114.133 16 114.148 15.75C114.164 15.5 114.176 15.2617 114.184 15.0352C114.191 14.8008 114.199 14.5938 114.207 14.4141C114.215 14.2344 114.219 14.0977 114.219 14.0039C114.219 13.8008 114.184 13.6562 114.113 13.5703C114.043 13.4766 113.961 13.4297 113.867 13.4297C113.781 13.4297 113.684 13.4609 113.574 13.5234C113.473 13.5859 113.352 13.707 113.211 13.8867C113.102 14.0273 112.961 14.2344 112.789 14.5078C112.625 14.7734 112.449 15.0703 112.262 15.3984C112.074 15.7266 111.887 16.0625 111.699 16.4062C111.52 16.75 111.363 17.0586 111.23 17.332C111.066 17.6602 110.902 17.8828 110.738 18C110.574 18.125 110.414 18.1875 110.258 18.1875C110.031 18.1875 109.863 18.1211 109.754 17.9883C109.645 17.8477 109.59 17.6641 109.59 17.4375C109.59 17.4141 109.594 17.2734 109.602 17.0156C109.617 16.7578 109.633 16.4453 109.648 16.0781C109.664 15.7031 109.68 15.3047 109.695 14.8828C109.719 14.4609 109.738 14.0664 109.754 13.6992C109.762 13.5039 109.754 13.3242 109.73 13.1602C109.707 12.9961 109.676 12.8984 109.637 12.8672C109.574 12.8828 109.449 13.0273 109.262 13.3008C109.082 13.5742 108.852 14.0508 108.57 14.7305C108.531 14.8164 108.473 14.8828 108.395 14.9297C108.316 14.9766 108.234 15 108.148 15C108.016 15 107.91 14.957 107.832 14.8711C107.754 14.7773 107.715 14.6719 107.715 14.5547C107.715 14.5 107.727 14.4414 107.75 14.3789C108.102 13.543 108.438 12.9297 108.758 12.5391C109.078 12.1406 109.391 11.9414 109.695 11.9414C109.875 11.9414 110.023 11.9844 110.141 12.0703C110.266 12.1484 110.363 12.2539 110.434 12.3867C110.504 12.5117 110.555 12.6562 110.586 12.8203C110.617 12.9844 110.633 13.1445 110.633 13.3008C110.633 13.9961 110.613 14.6328 110.574 15.2109C110.543 15.7891 110.508 16.3711 110.469 16.957ZM137.879 6.26953C137.879 6.39453 137.836 6.49609 137.75 6.57422C137.664 6.64453 137.559 6.67969 137.434 6.67969H131.492V6.80859C131.492 7.28516 131.457 7.79297 131.387 8.33203C131.316 8.87109 131.219 9.41016 131.094 9.94922C130.977 10.4805 130.84 11 130.684 11.5078C130.535 12.0156 130.379 12.4844 130.215 12.9141C130.059 13.3438 129.902 13.7188 129.746 14.0391C129.59 14.3516 129.449 14.5859 129.324 14.7422C129.426 15.1016 129.547 15.4375 129.688 15.75C129.828 16.0547 129.984 16.3242 130.156 16.5586C130.336 16.7852 130.527 16.9648 130.73 17.0977C130.934 17.2305 131.152 17.2969 131.387 17.2969C131.66 17.2969 131.93 17.1836 132.195 16.957C132.469 16.7227 132.719 16.4492 132.945 16.1367C133.18 15.8164 133.383 15.4961 133.555 15.1758C133.734 14.8477 133.863 14.5859 133.941 14.3906C134.02 14.2031 134.156 14.1094 134.352 14.1094C134.484 14.1094 134.59 14.1562 134.668 14.25C134.754 14.3438 134.797 14.4453 134.797 14.5547C134.797 14.6094 134.785 14.6641 134.762 14.7188C134.738 14.7734 134.68 14.8984 134.586 15.0938C134.5 15.2891 134.383 15.5156 134.234 15.7734C134.094 16.0312 133.926 16.3047 133.73 16.5938C133.543 16.875 133.328 17.1328 133.086 17.3672C132.852 17.6016 132.598 17.7969 132.324 17.9531C132.051 18.1094 131.762 18.1875 131.457 18.1875C130.918 18.1875 130.434 18.0117 130.004 17.6602C129.574 17.3086 129.207 16.8164 128.902 16.1836C128.605 15.5508 128.379 14.8008 128.223 13.9336C128.066 13.0664 127.988 12.1172 127.988 11.0859C127.988 10.8281 127.992 10.5273 128 10.1836C128.008 9.83203 128.023 9.46484 128.047 9.08203C128.07 8.69141 128.105 8.29297 128.152 7.88672C128.199 7.47266 128.262 7.07031 128.34 6.67969H124.133C124.008 6.67969 123.902 6.64453 123.816 6.57422C123.73 6.49609 123.688 6.39453 123.688 6.26953C123.688 6.14453 123.73 6.04688 123.816 5.97656C123.902 5.89844 124.008 5.85938 124.133 5.85938H128.539C128.617 5.57812 128.707 5.32031 128.809 5.08594C128.918 4.85156 129.039 4.64844 129.172 4.47656C129.312 4.30469 129.465 4.17188 129.629 4.07812C129.801 3.97656 129.988 3.92578 130.191 3.92578C130.387 3.92578 130.555 3.97656 130.695 4.07812C130.844 4.17188 130.969 4.30469 131.07 4.47656C131.172 4.64844 131.25 4.85156 131.305 5.08594C131.367 5.32031 131.414 5.57812 131.445 5.85938H137.434C137.559 5.85938 137.664 5.89844 137.75 5.97656C137.836 6.04688 137.879 6.14453 137.879 6.26953ZM129.055 13.5703C129.289 13.0547 129.5 12.5 129.688 11.9062C129.883 11.3047 130.047 10.6992 130.18 10.0898C130.32 9.48047 130.426 8.88281 130.496 8.29688C130.574 7.71094 130.613 7.17188 130.613 6.67969H129.23C129.121 7.16406 129.031 7.76562 128.961 8.48438C128.898 9.19531 128.867 10.0625 128.867 11.0859C128.867 11.6562 128.883 12.1367 128.914 12.5273C128.945 12.9102 128.992 13.2578 129.055 13.5703ZM130.145 4.80469C130.074 4.80469 129.973 4.88281 129.84 5.03906C129.707 5.1875 129.574 5.46094 129.441 5.85938H130.566C130.527 5.53125 130.469 5.27344 130.391 5.08594C130.32 4.89844 130.238 4.80469 130.145 4.80469ZM129.242 14.4141V14.4258V14.4141ZM134.914 17.0039C135.039 16.7383 135.184 16.4531 135.348 16.1484C135.512 15.8359 135.688 15.5195 135.875 15.1992C136.062 14.8711 136.262 14.5469 136.473 14.2266C136.684 13.9062 136.902 13.6055 137.129 13.3242C137.355 13.0508 137.582 12.8555 137.809 12.7383C138.043 12.6133 138.262 12.5508 138.465 12.5508C138.668 12.5508 138.844 12.5938 138.992 12.6797C139.148 12.7578 139.273 12.8672 139.367 13.0078C139.469 13.1484 139.543 13.3125 139.59 13.5C139.645 13.6875 139.672 13.8906 139.672 14.1094C139.672 14.2891 139.652 14.5312 139.613 14.8359C139.582 15.1328 139.566 15.4453 139.566 15.7734C139.566 15.9609 139.574 16.1484 139.59 16.3359C139.613 16.5156 139.648 16.6797 139.695 16.8281C139.75 16.9688 139.828 17.0859 139.93 17.1797C140.031 17.2656 140.164 17.3086 140.328 17.3086C140.516 17.3086 140.703 17.2578 140.891 17.1562C141.078 17.0469 141.262 16.9062 141.441 16.7344C141.621 16.5547 141.793 16.3594 141.957 16.1484C142.121 15.9297 142.27 15.7148 142.402 15.5039C142.535 15.2852 142.652 15.0781 142.754 14.8828C142.855 14.6797 142.938 14.5117 143 14.3789C143.078 14.1992 143.215 14.1094 143.41 14.1094C143.543 14.1094 143.648 14.1562 143.727 14.25C143.805 14.3438 143.844 14.4453 143.844 14.5547C143.844 14.6172 143.832 14.6758 143.809 14.7305C143.777 14.793 143.715 14.9219 143.621 15.1172C143.535 15.3125 143.414 15.5391 143.258 15.7969C143.109 16.0547 142.934 16.3242 142.73 16.6055C142.527 16.8867 142.301 17.1484 142.051 17.3906C141.809 17.625 141.543 17.8203 141.254 17.9766C140.973 18.125 140.676 18.1992 140.363 18.1992C140.004 18.1992 139.715 18.125 139.496 17.9766C139.277 17.8203 139.105 17.625 138.98 17.3906C138.863 17.1562 138.781 16.8945 138.734 16.6055C138.695 16.3164 138.676 16.0352 138.676 15.7617C138.676 15.6211 138.68 15.4727 138.688 15.3164C138.703 15.1523 138.719 14.9922 138.734 14.8359C138.75 14.6797 138.762 14.5352 138.77 14.4023C138.785 14.2617 138.793 14.1445 138.793 14.0508C138.793 13.8086 138.758 13.6445 138.688 13.5586C138.625 13.4727 138.551 13.4297 138.465 13.4297C138.34 13.4297 138.195 13.5039 138.031 13.6523C137.875 13.793 137.707 13.9805 137.527 14.2148C137.355 14.4492 137.18 14.7148 137 15.0117C136.828 15.3008 136.66 15.5898 136.496 15.8789C136.332 16.168 136.184 16.4453 136.051 16.7109C135.918 16.9688 135.809 17.1836 135.723 17.3555C135.559 17.6836 135.391 17.9023 135.219 18.0117C135.055 18.1289 134.906 18.1875 134.773 18.1875C134.531 18.1875 134.344 18.0938 134.211 17.9062C134.086 17.7109 134.023 17.4766 134.023 17.2031V16.4648C134.023 14.9883 134.023 13.582 134.023 12.2461C134.031 10.9023 134.051 9.65625 134.082 8.50781C134.121 7.35156 134.18 6.30859 134.258 5.37891C134.344 4.44141 134.469 3.64453 134.633 2.98828C134.797 2.32422 135.004 1.8125 135.254 1.45312C135.512 1.09375 135.832 0.914062 136.215 0.914062C136.543 0.914062 136.82 1.00391 137.047 1.18359C137.273 1.36328 137.457 1.60937 137.598 1.92188C137.738 2.22656 137.84 2.58594 137.902 3C137.965 3.40625 137.996 3.83594 137.996 4.28906C137.996 5.21094 137.91 6.11719 137.738 7.00781C137.574 7.89062 137.352 8.75391 137.07 9.59766C136.789 10.4414 136.461 11.2656 136.086 12.0703C135.711 12.8672 135.316 13.6445 134.902 14.4023C134.902 14.543 134.902 14.7109 134.902 14.9062C134.902 15.1016 134.902 15.2969 134.902 15.4922C134.902 15.6875 134.902 15.8711 134.902 16.043C134.902 16.2148 134.902 16.3516 134.902 16.4531L134.914 17.0039ZM134.914 12.6797C135.242 11.9609 135.539 11.2617 135.805 10.582C136.078 9.89453 136.309 9.21094 136.496 8.53125C136.691 7.85156 136.844 7.16406 136.953 6.46875C137.062 5.76562 137.117 5.03516 137.117 4.27734C137.117 4.15234 137.109 3.95312 137.094 3.67969C137.086 3.40625 137.051 3.12891 136.988 2.84766C136.934 2.56641 136.844 2.32031 136.719 2.10938C136.602 1.89844 136.434 1.79297 136.215 1.79297C136.043 1.79297 135.895 1.91016 135.77 2.14453C135.645 2.37109 135.535 2.68359 135.441 3.08203C135.348 3.47266 135.27 3.92969 135.207 4.45312C135.145 4.97656 135.094 5.53125 135.055 6.11719C135.016 6.70312 134.984 7.30469 134.961 7.92188C134.945 8.53906 134.934 9.14062 134.926 9.72656C134.918 10.3047 134.914 10.8477 134.914 11.3555C134.914 11.8633 134.914 12.3047 134.914 12.6797ZM144.418 16.7109C144.582 16.9375 144.793 17.1211 145.051 17.2617C145.309 17.3945 145.625 17.4609 146 17.4609C146.383 17.4609 146.73 17.3711 147.043 17.1914C147.355 17.0039 147.641 16.7617 147.898 16.4648C148.156 16.168 148.387 15.8359 148.59 15.4688C148.793 15.1016 148.977 14.7344 149.141 14.3672C149.18 14.2812 149.234 14.2188 149.305 14.1797C149.375 14.1328 149.453 14.1094 149.539 14.1094C149.672 14.1094 149.777 14.1562 149.855 14.25C149.941 14.3438 149.984 14.4453 149.984 14.5547C149.984 14.5938 149.98 14.6289 149.973 14.6602C149.965 14.6836 149.953 14.7109 149.938 14.7422C149.398 15.9297 148.809 16.8242 148.168 17.4258C147.535 18.0273 146.816 18.3359 146.012 18.3516C145.496 18.3516 145.051 18.25 144.676 18.0469C144.301 17.8516 143.992 17.5977 143.75 17.2852C143.508 16.9648 143.328 16.6055 143.211 16.207C143.094 15.8086 143.035 15.4102 143.035 15.0117C143.035 14.6133 143.082 14.2461 143.176 13.9102C143.277 13.5742 143.418 13.2812 143.598 13.0312C143.785 12.7812 144.004 12.5859 144.254 12.4453C144.512 12.3047 144.793 12.2344 145.098 12.2344C145.277 12.2344 145.453 12.2734 145.625 12.3516C145.805 12.4219 145.965 12.5273 146.105 12.668C146.246 12.8008 146.359 12.9648 146.445 13.1602C146.531 13.3555 146.574 13.5781 146.574 13.8281C146.574 14.1484 146.52 14.4492 146.41 14.7305C146.301 15.0117 146.148 15.2734 145.953 15.5156C145.766 15.7578 145.539 15.9805 145.273 16.1836C145.008 16.3867 144.723 16.5625 144.418 16.7109ZM144.066 15.9492C144.309 15.8477 144.527 15.7188 144.723 15.5625C144.926 15.4062 145.098 15.2344 145.238 15.0469C145.379 14.8594 145.488 14.6641 145.566 14.4609C145.645 14.25 145.684 14.0391 145.684 13.8281C145.684 13.5938 145.625 13.418 145.508 13.3008C145.391 13.1758 145.254 13.1133 145.098 13.1133C144.887 13.1133 144.707 13.1719 144.559 13.2891C144.41 13.4062 144.289 13.5586 144.195 13.7461C144.102 13.9336 144.031 14.1445 143.984 14.3789C143.945 14.6055 143.926 14.832 143.926 15.0586C143.926 15.1992 143.938 15.3477 143.961 15.5039C143.992 15.6602 144.027 15.8086 144.066 15.9492ZM173.152 13.0195C173.145 13.0508 173.09 13.1836 172.988 13.418C172.887 13.6523 172.715 13.9414 172.473 14.2852C172.238 14.6289 171.926 15.0078 171.535 15.4219C171.145 15.8359 170.652 16.2422 170.059 16.6406C169.465 17.0312 168.762 17.3906 167.949 17.7188C167.137 18.0391 166.195 18.2852 165.125 18.457C164.406 18.5742 163.652 18.6328 162.863 18.6328C162.207 18.6328 161.547 18.5859 160.883 18.4922C160.227 18.4062 159.594 18.2656 158.984 18.0703C158.383 17.8828 157.82 17.6406 157.297 17.3438C156.773 17.0469 156.316 16.6953 155.926 16.2891C155.543 15.8828 155.238 15.418 155.012 14.8945C154.793 14.3633 154.684 13.7734 154.684 13.125C154.684 11.9766 155 10.9883 155.633 10.1602C156.273 9.33203 157.219 8.6875 158.469 8.22656C158.023 7.8125 157.691 7.35547 157.473 6.85547C157.254 6.35547 157.145 5.83594 157.145 5.29688C157.145 4.625 157.297 4.00391 157.602 3.43359C157.914 2.86328 158.344 2.37109 158.891 1.95703C159.438 1.54297 160.086 1.22266 160.836 0.996094C161.594 0.761719 162.422 0.644531 163.32 0.644531C164.227 0.644531 165.016 0.730469 165.688 0.902344C166.367 1.07422 166.945 1.28906 167.422 1.54688C167.906 1.80469 168.301 2.08594 168.605 2.39062C168.918 2.69531 169.164 2.98047 169.344 3.24609C169.523 3.51172 169.648 3.73828 169.719 3.92578C169.789 4.10547 169.828 4.20703 169.836 4.23047C169.844 4.26172 169.848 4.30469 169.848 4.35938C169.848 4.46875 169.805 4.57031 169.719 4.66406C169.641 4.75 169.535 4.79297 169.402 4.79297C169.309 4.79297 169.223 4.76563 169.145 4.71094C169.074 4.64844 169.023 4.56641 168.992 4.46484C168.992 4.44922 168.961 4.36719 168.898 4.21875C168.836 4.0625 168.727 3.875 168.57 3.65625C168.414 3.4375 168.199 3.20703 167.926 2.96484C167.66 2.71484 167.316 2.48438 166.895 2.27344C166.473 2.05469 165.969 1.875 165.383 1.73438C164.797 1.59375 164.109 1.52344 163.32 1.52344C162.414 1.52344 161.625 1.63672 160.953 1.86328C160.289 2.08984 159.738 2.38672 159.301 2.75391C158.871 3.11328 158.551 3.51562 158.34 3.96094C158.129 4.40625 158.023 4.84375 158.023 5.27344C158.023 5.78125 158.148 6.26562 158.398 6.72656C158.648 7.1875 159.008 7.58203 159.477 7.91016C159.898 7.80078 160.312 7.71484 160.719 7.65234C161.125 7.58984 161.508 7.54297 161.867 7.51172C162.227 7.47266 162.551 7.44922 162.84 7.44141C163.137 7.42578 163.379 7.41797 163.566 7.41797C163.91 7.41797 164.227 7.44531 164.516 7.5C164.805 7.54688 165.051 7.62109 165.254 7.72266C165.465 7.81641 165.629 7.94141 165.746 8.09766C165.863 8.24609 165.922 8.41797 165.922 8.61328C165.922 8.80859 165.863 8.98438 165.746 9.14062C165.629 9.29688 165.465 9.42969 165.254 9.53906C165.051 9.64844 164.805 9.73438 164.516 9.79688C164.227 9.85156 163.91 9.87891 163.566 9.87891C163.191 9.87891 162.812 9.85547 162.43 9.80859C162.047 9.76172 161.672 9.69531 161.305 9.60938C160.945 9.52344 160.598 9.41797 160.262 9.29297C159.926 9.16016 159.621 9.01172 159.348 8.84766C158.105 9.22266 157.164 9.76562 156.523 10.4766C155.883 11.1797 155.562 12.0508 155.562 13.0898C155.562 13.6523 155.66 14.1602 155.855 14.6133C156.059 15.0586 156.336 15.4531 156.688 15.7969C157.039 16.1406 157.449 16.4375 157.918 16.6875C158.395 16.9297 158.902 17.1289 159.441 17.2852C159.98 17.4414 160.543 17.5586 161.129 17.6367C161.715 17.707 162.297 17.7422 162.875 17.7422C163.25 17.7422 163.613 17.7305 163.965 17.707C164.316 17.6758 164.656 17.6328 164.984 17.5781C165.969 17.4219 166.832 17.1953 167.574 16.8984C168.324 16.5938 168.969 16.2656 169.508 15.9141C170.055 15.5547 170.508 15.1914 170.867 14.8242C171.227 14.4492 171.512 14.1094 171.723 13.8047C171.941 13.4922 172.094 13.2383 172.18 13.043C172.273 12.8477 172.32 12.7461 172.32 12.7383C172.352 12.6445 172.402 12.5742 172.473 12.5273C172.551 12.4727 172.637 12.4453 172.73 12.4453C172.855 12.4453 172.961 12.4883 173.047 12.5742C173.133 12.6602 173.176 12.7617 173.176 12.8789C173.176 12.9102 173.168 12.957 173.152 13.0195ZM165.031 8.625C165.031 8.5625 164.98 8.50781 164.879 8.46094C164.777 8.41406 164.645 8.37891 164.48 8.35547C164.324 8.32422 164.145 8.30469 163.941 8.29688C163.738 8.28125 163.531 8.27344 163.32 8.27344C162.859 8.27344 162.422 8.28906 162.008 8.32031C161.594 8.34375 161.121 8.40625 160.59 8.50781C160.996 8.65625 161.461 8.77734 161.984 8.87109C162.516 8.95703 163.051 9 163.59 9C164.082 9 164.445 8.96094 164.68 8.88281C164.914 8.80469 165.031 8.71875 165.031 8.625ZM181.309 11.3672C180.105 12.8516 179.008 14.4141 178.016 16.0547C178.289 16.4609 178.59 16.7969 178.918 17.0625C179.246 17.3281 179.617 17.4609 180.031 17.4609C180.398 17.4609 180.746 17.3555 181.074 17.1445C181.402 16.9336 181.699 16.6758 181.965 16.3711C182.238 16.0586 182.473 15.7266 182.668 15.375C182.871 15.0156 183.027 14.6914 183.137 14.4023C183.215 14.207 183.352 14.1094 183.547 14.1094C183.68 14.1094 183.785 14.1562 183.863 14.25C183.949 14.3359 183.992 14.4375 183.992 14.5547C183.992 14.5938 183.984 14.6445 183.969 14.707C183.977 14.6914 183.941 14.7695 183.863 14.9414C183.785 15.1133 183.668 15.3359 183.512 15.6094C183.355 15.875 183.164 16.168 182.938 16.4883C182.711 16.8086 182.449 17.1094 182.152 17.3906C181.863 17.6641 181.539 17.8906 181.18 18.0703C180.82 18.2578 180.434 18.3516 180.02 18.3516C179.504 18.3516 179.039 18.2148 178.625 17.9414C178.219 17.668 177.852 17.3203 177.523 16.8984C177.391 17.1328 177.262 17.3672 177.137 17.6016C177.012 17.8359 176.887 18.0703 176.762 18.3047C176.676 18.4688 176.543 18.5508 176.363 18.5508C176.23 18.5508 176.121 18.5039 176.035 18.4102C175.957 18.3164 175.918 18.2148 175.918 18.1055C175.918 18.043 175.938 17.9727 175.977 17.8945C176.133 17.5898 176.293 17.2852 176.457 16.9805C176.621 16.6758 176.793 16.375 176.973 16.0781C176.707 15.6172 176.48 15.1484 176.293 14.6719C176.105 14.1875 175.957 13.7344 175.848 13.3125L175.156 14.7422C175.07 14.9141 174.938 15 174.758 15C174.625 15 174.516 14.9531 174.43 14.8594C174.352 14.7656 174.312 14.6641 174.312 14.5547C174.312 14.4844 174.328 14.4219 174.359 14.3672L175.637 11.6953C175.676 11.625 175.73 11.5664 175.801 11.5195C175.871 11.4727 175.949 11.4492 176.035 11.4492C176.16 11.4492 176.262 11.4922 176.34 11.5781C176.418 11.6562 176.465 11.7539 176.48 11.8711C176.488 11.9805 176.516 12.1523 176.562 12.3867C176.617 12.6211 176.688 12.8906 176.773 13.1953C176.867 13.4922 176.973 13.8125 177.09 14.1562C177.215 14.5 177.359 14.8398 177.523 15.1758C178.461 13.6523 179.496 12.1953 180.629 10.8047C180.707 10.7031 180.82 10.6523 180.969 10.6523C181.094 10.6523 181.199 10.6953 181.285 10.7812C181.371 10.8672 181.414 10.9688 181.414 11.0859C181.414 11.1953 181.379 11.2891 181.309 11.3672ZM189.172 14.7305C189.172 15.4492 189.043 16.0625 188.785 16.5703C188.527 17.0781 188.211 17.4648 187.836 17.7305H187.883C188.344 17.7305 188.762 17.6289 189.137 17.4258C189.52 17.2148 189.863 16.9492 190.168 16.6289C190.473 16.3008 190.746 15.9375 190.988 15.5391C191.23 15.1406 191.445 14.7539 191.633 14.3789C191.672 14.293 191.727 14.2266 191.797 14.1797C191.875 14.1328 191.957 14.1094 192.043 14.1094C192.176 14.1094 192.281 14.1562 192.359 14.25C192.438 14.3438 192.477 14.4453 192.477 14.5547C192.477 14.6172 192.465 14.6758 192.441 14.7305C192.238 15.1836 191.996 15.6406 191.715 16.1016C191.434 16.5547 191.105 16.9648 190.73 17.332C190.355 17.6992 189.934 17.9961 189.465 18.2227C188.996 18.457 188.477 18.5742 187.906 18.5742C187.492 18.5742 187.09 18.5078 186.699 18.375C186.309 18.25 185.965 18.0508 185.668 17.7773C185.559 17.6914 185.465 17.6016 185.387 17.5078C185.309 17.4062 185.246 17.3125 185.199 17.2266C185.184 17.2109 185.176 17.1953 185.176 17.1797C185.129 17.1094 185.105 17.0352 185.105 16.957C185.105 16.8555 185.141 16.7617 185.211 16.6758C185.219 16.6602 185.227 16.6523 185.234 16.6523C185.242 16.6445 185.25 16.6367 185.258 16.6289C185.336 16.5586 185.422 16.5195 185.516 16.5117H185.551C185.59 16.5117 185.617 16.5156 185.633 16.5234C185.641 16.5234 185.645 16.5273 185.645 16.5352C185.652 16.5352 185.66 16.5352 185.668 16.5352C185.691 16.5352 185.719 16.543 185.75 16.5586C185.758 16.5664 185.766 16.5703 185.773 16.5703C185.844 16.6172 185.902 16.6758 185.949 16.7461C186.004 16.8398 186.066 16.9258 186.137 17.0039C186.199 17.0664 186.273 17.125 186.359 17.1797C186.445 17.2266 186.543 17.25 186.652 17.25C186.848 17.25 187.043 17.1914 187.238 17.0742C187.434 16.957 187.609 16.7891 187.766 16.5703C187.922 16.3516 188.047 16.0859 188.141 15.7734C188.242 15.4609 188.293 15.1133 188.293 14.7305C188.293 14.4492 188.262 14.2109 188.199 14.0156C188.145 13.8125 188.07 13.6484 187.977 13.5234C187.891 13.3984 187.797 13.3086 187.695 13.2539C187.594 13.1914 187.496 13.1602 187.402 13.1602C187.191 13.1602 186.977 13.2695 186.758 13.4883C186.547 13.707 186.336 13.9844 186.125 14.3203C185.914 14.6562 185.703 15.0273 185.492 15.4336C185.289 15.8398 185.082 16.2344 184.871 16.6172C184.855 17.8828 184.832 19.0898 184.801 20.2383C184.777 21.3867 184.73 22.4531 184.66 23.4375C184.598 24.4219 184.508 25.3125 184.391 26.1094C184.273 26.9062 184.113 27.5859 183.91 28.1484C183.707 28.7188 183.457 29.1562 183.16 29.4609C182.863 29.7656 182.5 29.918 182.07 29.918C181.938 29.918 181.785 29.8906 181.613 29.8359C181.441 29.7812 181.281 29.668 181.133 29.4961C180.984 29.332 180.859 29.0938 180.758 28.7812C180.656 28.4688 180.605 28.0508 180.605 27.5273C180.605 26.8633 180.688 26.0938 180.852 25.2188C181.016 24.3438 181.25 23.4141 181.555 22.4297C181.852 21.4531 182.207 20.4492 182.621 19.418C183.035 18.3867 183.492 17.3828 183.992 16.4062C183.992 16.1328 183.992 15.8633 183.992 15.5977C184 15.332 184.004 15.0742 184.004 14.8242C183.902 14.9414 183.781 15 183.641 15C183.508 15 183.402 14.9531 183.324 14.8594C183.246 14.7656 183.207 14.6641 183.207 14.5547C183.207 14.5 183.219 14.4414 183.242 14.3789C183.43 13.9492 183.574 13.543 183.676 13.1602C183.777 12.7695 183.852 12.4297 183.898 12.1406C183.953 11.8438 183.984 11.6094 183.992 11.4375C184 11.2656 184.004 11.1758 184.004 11.168C184.004 11.0508 184.047 10.9492 184.133 10.8633C184.219 10.7773 184.324 10.7344 184.449 10.7344C184.566 10.7344 184.668 10.7773 184.754 10.8633C184.84 10.9414 184.883 11.043 184.883 11.168V14.7656C185.062 14.4609 185.242 14.1602 185.422 13.8633C185.602 13.5664 185.789 13.3008 185.984 13.0664C186.188 12.832 186.402 12.6445 186.629 12.5039C186.863 12.3555 187.121 12.2812 187.402 12.2812C187.668 12.2812 187.91 12.3438 188.129 12.4688C188.348 12.5938 188.535 12.7656 188.691 12.9844C188.848 13.2031 188.965 13.4648 189.043 13.7695C189.129 14.0664 189.172 14.3867 189.172 14.7305ZM183.969 18.4922C183.586 19.3516 183.238 20.2148 182.926 21.082C182.621 21.9492 182.363 22.7852 182.152 23.5898C181.934 24.3945 181.766 25.1484 181.648 25.8516C181.531 26.5547 181.473 27.1719 181.473 27.7031C181.473 27.8359 181.48 27.9805 181.496 28.1367C181.512 28.293 181.543 28.4375 181.59 28.5703C181.637 28.7031 181.703 28.8125 181.789 28.8984C181.875 28.9922 181.988 29.0391 182.129 29.0391C182.387 29.0391 182.609 28.875 182.797 28.5469C182.984 28.2266 183.141 27.7891 183.266 27.2344C183.398 26.6875 183.508 26.0547 183.594 25.3359C183.68 24.625 183.746 23.8789 183.793 23.0977C183.848 22.3164 183.887 21.5273 183.91 20.7305C183.934 19.9414 183.953 19.1953 183.969 18.4922ZM193.051 16.7109C193.215 16.9375 193.426 17.1211 193.684 17.2617C193.941 17.3945 194.258 17.4609 194.633 17.4609C195.016 17.4609 195.363 17.3711 195.676 17.1914C195.988 17.0039 196.273 16.7617 196.531 16.4648C196.789 16.168 197.02 15.8359 197.223 15.4688C197.426 15.1016 197.609 14.7344 197.773 14.3672C197.812 14.2812 197.867 14.2188 197.938 14.1797C198.008 14.1328 198.086 14.1094 198.172 14.1094C198.305 14.1094 198.41 14.1562 198.488 14.25C198.574 14.3438 198.617 14.4453 198.617 14.5547C198.617 14.5938 198.613 14.6289 198.605 14.6602C198.598 14.6836 198.586 14.7109 198.57 14.7422C198.031 15.9297 197.441 16.8242 196.801 17.4258C196.168 18.0273 195.449 18.3359 194.645 18.3516C194.129 18.3516 193.684 18.25 193.309 18.0469C192.934 17.8516 192.625 17.5977 192.383 17.2852C192.141 16.9648 191.961 16.6055 191.844 16.207C191.727 15.8086 191.668 15.4102 191.668 15.0117C191.668 14.6133 191.715 14.2461 191.809 13.9102C191.91 13.5742 192.051 13.2812 192.23 13.0312C192.418 12.7812 192.637 12.5859 192.887 12.4453C193.145 12.3047 193.426 12.2344 193.73 12.2344C193.91 12.2344 194.086 12.2734 194.258 12.3516C194.438 12.4219 194.598 12.5273 194.738 12.668C194.879 12.8008 194.992 12.9648 195.078 13.1602C195.164 13.3555 195.207 13.5781 195.207 13.8281C195.207 14.1484 195.152 14.4492 195.043 14.7305C194.934 15.0117 194.781 15.2734 194.586 15.5156C194.398 15.7578 194.172 15.9805 193.906 16.1836C193.641 16.3867 193.355 16.5625 193.051 16.7109ZM192.699 15.9492C192.941 15.8477 193.16 15.7188 193.355 15.5625C193.559 15.4062 193.73 15.2344 193.871 15.0469C194.012 14.8594 194.121 14.6641 194.199 14.4609C194.277 14.25 194.316 14.0391 194.316 13.8281C194.316 13.5938 194.258 13.418 194.141 13.3008C194.023 13.1758 193.887 13.1133 193.73 13.1133C193.52 13.1133 193.34 13.1719 193.191 13.2891C193.043 13.4062 192.922 13.5586 192.828 13.7461C192.734 13.9336 192.664 14.1445 192.617 14.3789C192.578 14.6055 192.559 14.832 192.559 15.0586C192.559 15.1992 192.57 15.3477 192.594 15.5039C192.625 15.6602 192.66 15.8086 192.699 15.9492ZM199.016 13.1836C198.984 13.3945 198.945 13.5938 198.898 13.7812C198.852 13.9609 198.805 14.1211 198.758 14.2617C198.719 14.3945 198.684 14.5039 198.652 14.5898C198.621 14.6758 198.602 14.7227 198.594 14.7305C198.516 14.9102 198.379 15 198.184 15C198.074 15 197.973 14.9609 197.879 14.8828C197.785 14.7969 197.738 14.6914 197.738 14.5664C197.738 14.5195 197.746 14.4844 197.762 14.4609C197.777 14.4375 197.801 14.3906 197.832 14.3203C197.863 14.25 197.902 14.1328 197.949 13.9688C197.996 13.8047 198.055 13.5508 198.125 13.207C197.992 13.207 197.855 13.2031 197.715 13.1953C197.574 13.1875 197.445 13.1602 197.328 13.1133C197.203 13.0664 197.102 12.9922 197.023 12.8906C196.945 12.7891 196.906 12.6484 196.906 12.4688C196.906 12.3359 196.945 12.1562 197.023 11.9297C197.094 11.7031 197.191 11.4805 197.316 11.2617C197.441 11.043 197.582 10.8555 197.738 10.6992C197.895 10.5352 198.051 10.4531 198.207 10.4531C198.387 10.4531 198.531 10.5195 198.641 10.6523C198.758 10.7852 198.848 10.9492 198.91 11.1445C198.973 11.332 199.016 11.5312 199.039 11.7422C199.07 11.9531 199.086 12.1367 199.086 12.293C199.219 12.293 199.348 12.293 199.473 12.293C199.605 12.2852 199.73 12.2812 199.848 12.2812C200.293 12.2812 200.633 12.3789 200.867 12.5742C201.102 12.7695 201.219 13.0898 201.219 13.5352C201.219 13.7148 201.207 13.9023 201.184 14.0977C201.16 14.293 201.133 14.4961 201.102 14.707C201.07 14.9102 201.043 15.1133 201.02 15.3164C200.996 15.5195 200.984 15.7188 200.984 15.9141C200.984 16.1953 201.023 16.4297 201.102 16.6172C201.18 16.7969 201.277 16.9414 201.395 17.0508C201.512 17.1602 201.637 17.2383 201.77 17.2852C201.902 17.3242 202.023 17.3438 202.133 17.3438C202.469 17.3438 202.785 17.2344 203.082 17.0156C203.379 16.7969 203.652 16.5352 203.902 16.2305C204.152 15.918 204.375 15.5898 204.57 15.2461C204.773 14.9023 204.941 14.6016 205.074 14.3438C205.113 14.2734 205.168 14.2188 205.238 14.1797C205.309 14.1406 205.383 14.1211 205.461 14.1211C205.602 14.1211 205.711 14.168 205.789 14.2617C205.867 14.3477 205.906 14.4453 205.906 14.5547C205.906 14.6328 205.891 14.7031 205.859 14.7656C205.68 15.0859 205.469 15.4492 205.227 15.8555C204.992 16.2539 204.723 16.6289 204.418 16.9805C204.113 17.332 203.77 17.6289 203.387 17.8711C203.012 18.1133 202.598 18.2344 202.145 18.2344C201.863 18.2344 201.598 18.1797 201.348 18.0703C201.098 17.9688 200.879 17.8203 200.691 17.625C200.512 17.4219 200.367 17.1758 200.258 16.8867C200.148 16.5898 200.094 16.2578 200.094 15.8906C200.094 15.5 200.133 15.1133 200.211 14.7305C200.289 14.3398 200.328 13.9688 200.328 13.6172C200.328 13.4688 200.293 13.3594 200.223 13.2891C200.16 13.2109 200.016 13.1719 199.789 13.1719C199.68 13.1719 199.559 13.1719 199.426 13.1719C199.301 13.1719 199.164 13.1758 199.016 13.1836ZM198.23 12.3164C198.23 12.2617 198.227 12.1914 198.219 12.1055C198.219 12.0117 198.211 11.9219 198.195 11.8359C198.188 11.75 198.172 11.6758 198.148 11.6133C198.133 11.5508 198.113 11.5195 198.09 11.5195C198.066 11.5195 198.035 11.5508 197.996 11.6133C197.965 11.668 197.93 11.7383 197.891 11.8242C197.852 11.9023 197.816 11.9883 197.785 12.082C197.754 12.1758 197.73 12.2539 197.715 12.3164H198.23ZM214.566 6.26953C214.566 6.39453 214.523 6.49609 214.438 6.57422C214.352 6.64453 214.246 6.67969 214.121 6.67969H208.18V6.80859C208.18 7.28516 208.145 7.79297 208.074 8.33203C208.004 8.87109 207.906 9.41016 207.781 9.94922C207.664 10.4805 207.527 11 207.371 11.5078C207.223 12.0156 207.066 12.4844 206.902 12.9141C206.746 13.3438 206.59 13.7188 206.434 14.0391C206.277 14.3516 206.137 14.5859 206.012 14.7422C206.113 15.1016 206.234 15.4375 206.375 15.75C206.516 16.0547 206.672 16.3242 206.844 16.5586C207.023 16.7852 207.215 16.9648 207.418 17.0977C207.621 17.2305 207.84 17.2969 208.074 17.2969C208.348 17.2969 208.617 17.1836 208.883 16.957C209.156 16.7227 209.406 16.4492 209.633 16.1367C209.867 15.8164 210.07 15.4961 210.242 15.1758C210.422 14.8477 210.551 14.5859 210.629 14.3906C210.707 14.2031 210.844 14.1094 211.039 14.1094C211.172 14.1094 211.277 14.1562 211.355 14.25C211.441 14.3438 211.484 14.4453 211.484 14.5547C211.484 14.6094 211.473 14.6641 211.449 14.7188C211.426 14.7734 211.367 14.8984 211.273 15.0938C211.188 15.2891 211.07 15.5156 210.922 15.7734C210.781 16.0312 210.613 16.3047 210.418 16.5938C210.23 16.875 210.016 17.1328 209.773 17.3672C209.539 17.6016 209.285 17.7969 209.012 17.9531C208.738 18.1094 208.449 18.1875 208.145 18.1875C207.605 18.1875 207.121 18.0117 206.691 17.6602C206.262 17.3086 205.895 16.8164 205.59 16.1836C205.293 15.5508 205.066 14.8008 204.91 13.9336C204.754 13.0664 204.676 12.1172 204.676 11.0859C204.676 10.8281 204.68 10.5273 204.688 10.1836C204.695 9.83203 204.711 9.46484 204.734 9.08203C204.758 8.69141 204.793 8.29297 204.84 7.88672C204.887 7.47266 204.949 7.07031 205.027 6.67969H200.82C200.695 6.67969 200.59 6.64453 200.504 6.57422C200.418 6.49609 200.375 6.39453 200.375 6.26953C200.375 6.14453 200.418 6.04688 200.504 5.97656C200.59 5.89844 200.695 5.85938 200.82 5.85938H205.227C205.305 5.57812 205.395 5.32031 205.496 5.08594C205.605 4.85156 205.727 4.64844 205.859 4.47656C206 4.30469 206.152 4.17188 206.316 4.07812C206.488 3.97656 206.676 3.92578 206.879 3.92578C207.074 3.92578 207.242 3.97656 207.383 4.07812C207.531 4.17188 207.656 4.30469 207.758 4.47656C207.859 4.64844 207.938 4.85156 207.992 5.08594C208.055 5.32031 208.102 5.57812 208.133 5.85938H214.121C214.246 5.85938 214.352 5.89844 214.438 5.97656C214.523 6.04688 214.566 6.14453 214.566 6.26953ZM205.742 13.5703C205.977 13.0547 206.188 12.5 206.375 11.9062C206.57 11.3047 206.734 10.6992 206.867 10.0898C207.008 9.48047 207.113 8.88281 207.184 8.29688C207.262 7.71094 207.301 7.17188 207.301 6.67969H205.918C205.809 7.16406 205.719 7.76562 205.648 8.48438C205.586 9.19531 205.555 10.0625 205.555 11.0859C205.555 11.6562 205.57 12.1367 205.602 12.5273C205.633 12.9102 205.68 13.2578 205.742 13.5703ZM206.832 4.80469C206.762 4.80469 206.66 4.88281 206.527 5.03906C206.395 5.1875 206.262 5.46094 206.129 5.85938H207.254C207.215 5.53125 207.156 5.27344 207.078 5.08594C207.008 4.89844 206.926 4.80469 206.832 4.80469ZM205.93 14.4141V14.4258V14.4141ZM211.977 13.6641C211.93 13.7891 211.871 13.9297 211.801 14.0859C211.738 14.2422 211.664 14.4062 211.578 14.5781C211.508 14.7109 211.434 14.8164 211.355 14.8945C211.285 14.9648 211.191 15 211.074 15C210.941 15 210.836 14.9609 210.758 14.8828C210.68 14.7969 210.641 14.6992 210.641 14.5898C210.641 14.5508 210.645 14.5195 210.652 14.4961C210.66 14.4648 210.68 14.418 210.711 14.3555C210.914 13.9648 211.062 13.625 211.156 13.3359C211.258 13.0391 211.34 12.7305 211.402 12.4102C211.348 12.2305 211.309 12.0781 211.285 11.9531C211.262 11.8281 211.25 11.6992 211.25 11.5664C211.25 11.3086 211.305 11.1016 211.414 10.9453C211.523 10.7812 211.676 10.6992 211.871 10.6992C212.051 10.6992 212.191 10.7773 212.293 10.9336C212.402 11.0898 212.457 11.2812 212.457 11.5078C212.457 11.6328 212.445 11.7578 212.422 11.8828C212.398 12.0078 212.367 12.1641 212.328 12.3516C212.508 12.7969 212.688 13.1914 212.867 13.5352C213.047 13.8789 213.207 14.1953 213.348 14.4844C213.488 14.7656 213.602 15.0312 213.688 15.2812C213.781 15.5312 213.828 15.7812 213.828 16.0312C213.828 16.3594 213.762 16.6719 213.629 16.9688C213.496 17.2656 213.277 17.5156 212.973 17.7188C213.012 17.7266 213.051 17.7305 213.09 17.7305C213.129 17.7305 213.168 17.7305 213.207 17.7305C213.652 17.7305 214.062 17.6289 214.438 17.4258C214.812 17.2227 215.148 16.9609 215.445 16.6406C215.75 16.3125 216.02 15.9531 216.254 15.5625C216.488 15.1641 216.691 14.7695 216.863 14.3789C216.941 14.1992 217.051 14.1094 217.191 14.1094C217.324 14.1094 217.426 14.1562 217.496 14.25C217.574 14.3438 217.613 14.4453 217.613 14.5547C217.613 14.6172 217.602 14.6758 217.578 14.7305C217.492 14.9414 217.379 15.1836 217.238 15.457C217.105 15.7227 216.941 16 216.746 16.2891C216.559 16.5703 216.34 16.8477 216.09 17.1211C215.84 17.3945 215.559 17.6406 215.246 17.8594C214.941 18.0703 214.605 18.2383 214.238 18.3633C213.871 18.4961 213.469 18.5625 213.031 18.5625C212.508 18.5625 212.02 18.4688 211.566 18.2812C211.121 18.1016 210.758 17.8008 210.477 17.3789C210.43 17.3086 210.406 17.2344 210.406 17.1562C210.406 17.0391 210.449 16.9375 210.535 16.8516C210.629 16.7578 210.734 16.7109 210.852 16.7109C210.977 16.7109 211.082 16.7539 211.168 16.8398C211.176 16.8555 211.203 16.8828 211.25 16.9219C211.297 16.9531 211.352 16.9922 211.414 17.0391C211.484 17.0781 211.562 17.1133 211.648 17.1445C211.742 17.1758 211.836 17.1914 211.93 17.1914C212.117 17.1914 212.273 17.1523 212.398 17.0742C212.531 16.9961 212.637 16.9023 212.715 16.793C212.793 16.6758 212.848 16.5547 212.879 16.4297C212.918 16.2969 212.938 16.1836 212.938 16.0898C212.938 15.8945 212.906 15.6992 212.844 15.5039C212.781 15.3086 212.699 15.1133 212.598 14.918C212.504 14.7227 212.398 14.5234 212.281 14.3203C212.172 14.1094 212.07 13.8906 211.977 13.6641ZM227.445 16.7109C227.25 16.7109 227.078 16.6953 226.93 16.6641C226.812 16.8984 226.672 17.1172 226.508 17.3203C226.344 17.5156 226.152 17.6875 225.934 17.8359C225.723 17.9844 225.484 18.1016 225.219 18.1875C224.953 18.2734 224.664 18.3164 224.352 18.3164C223.984 18.3164 223.648 18.25 223.344 18.1172C223.039 17.9922 222.773 17.8164 222.547 17.5898C222.32 17.3555 222.145 17.0781 222.02 16.7578C221.895 16.4297 221.832 16.0703 221.832 15.6797C221.832 15.1797 221.922 14.7461 222.102 14.3789C222.281 14.0039 222.488 13.6953 222.723 13.4531C222.957 13.2031 223.191 13.0195 223.426 12.9023C223.66 12.7773 223.836 12.7148 223.953 12.7148C224.086 12.7148 224.184 12.75 224.246 12.8203C224.316 12.8906 224.352 12.9844 224.352 13.1016C224.352 13.2344 224.309 13.3359 224.223 13.4062C224.145 13.4688 224.043 13.5312 223.918 13.5938C223.793 13.6562 223.66 13.7461 223.52 13.8633C223.379 13.9727 223.246 14.1133 223.121 14.2852C223.004 14.457 222.906 14.6602 222.828 14.8945C222.75 15.1289 222.711 15.3906 222.711 15.6797C222.711 15.9375 222.75 16.1797 222.828 16.4062C222.906 16.625 223.02 16.8164 223.168 16.9805C223.316 17.1367 223.492 17.2617 223.695 17.3555C223.898 17.4414 224.125 17.4844 224.375 17.4844C224.82 17.4844 225.188 17.3828 225.477 17.1797C225.773 16.9688 226 16.7031 226.156 16.3828C225.695 16.1406 225.316 15.7969 225.02 15.3516C224.723 14.9062 224.574 14.4062 224.574 13.8516C224.574 13.4062 224.68 13.043 224.891 12.7617C225.109 12.4805 225.395 12.3398 225.746 12.3398C225.957 12.3398 226.156 12.3906 226.344 12.4922C226.531 12.5938 226.695 12.7539 226.836 12.9727C226.984 13.1914 227.102 13.4727 227.188 13.8164C227.273 14.1602 227.316 14.5703 227.316 15.0469C227.316 15.2969 227.285 15.5586 227.223 15.832C227.27 15.8398 227.316 15.8438 227.363 15.8438C227.41 15.8438 227.461 15.8438 227.516 15.8438C227.781 15.8438 228.02 15.8125 228.23 15.75C228.441 15.6875 228.633 15.5938 228.805 15.4688C228.977 15.3438 229.129 15.1836 229.262 14.9883C229.402 14.793 229.535 14.5664 229.66 14.3086C229.684 14.2617 229.734 14.2188 229.812 14.1797C229.891 14.1328 229.969 14.1094 230.047 14.1094C230.148 14.1094 230.242 14.1523 230.328 14.2383C230.422 14.3164 230.469 14.4219 230.469 14.5547C230.469 14.6172 230.453 14.6875 230.422 14.7656C230.391 14.8359 230.359 14.9023 230.328 14.9648C230.195 15.1992 230.039 15.4258 229.859 15.6445C229.688 15.8555 229.48 16.043 229.238 16.207C229.004 16.3633 228.738 16.4883 228.441 16.582C228.145 16.6758 227.812 16.7188 227.445 16.7109ZM225.441 13.7578C225.441 13.9062 225.461 14.0625 225.5 14.2266C225.539 14.3906 225.598 14.5547 225.676 14.7188C225.762 14.875 225.863 15.0273 225.98 15.1758C226.105 15.3164 226.25 15.4375 226.414 15.5391C226.438 15.375 226.449 15.2148 226.449 15.0586C226.449 14.8477 226.434 14.6328 226.402 14.4141C226.371 14.1953 226.324 13.9961 226.262 13.8164C226.207 13.6289 226.137 13.4805 226.051 13.3711C225.965 13.2539 225.863 13.1953 225.746 13.1953C225.699 13.1953 225.637 13.2305 225.559 13.3008C225.48 13.3711 225.441 13.5234 225.441 13.7578ZM230.551 18.5742C231.129 18.3164 231.652 18.0195 232.121 17.6836C232.598 17.3477 233.02 16.9961 233.387 16.6289C233.762 16.2539 234.078 15.875 234.336 15.4922C234.602 15.1016 234.812 14.7305 234.969 14.3789C235.039 14.207 235.172 14.1211 235.367 14.1211C235.5 14.1211 235.605 14.168 235.684 14.2617C235.77 14.3477 235.812 14.4453 235.812 14.5547C235.812 14.6172 235.801 14.6758 235.777 14.7305C235.605 15.1133 235.387 15.5117 235.121 15.9258C234.855 16.332 234.531 16.7344 234.148 17.1328C233.773 17.5234 233.332 17.9023 232.824 18.2695C232.316 18.6367 231.734 18.9727 231.078 19.2773C231.5 19.7148 231.867 20.1992 232.18 20.7305C232.492 21.2695 232.75 21.8281 232.953 22.4062C233.164 22.9844 233.32 23.5664 233.422 24.1523C233.531 24.7461 233.586 25.3125 233.586 25.8516C233.586 26.3438 233.539 26.8047 233.445 27.2344C233.359 27.6719 233.227 28.0508 233.047 28.3711C232.875 28.6914 232.664 28.9414 232.414 29.1211C232.164 29.3086 231.879 29.4023 231.559 29.4023C231.09 29.4023 230.727 29.2266 230.469 28.875C230.211 28.5312 230.02 28.0508 229.895 27.4336C229.777 26.8242 229.707 26.1016 229.684 25.2656C229.668 24.4375 229.66 23.5352 229.66 22.5586C229.66 22.0742 229.66 21.5078 229.66 20.8594C229.66 20.2188 229.66 19.5273 229.66 18.7852C229.668 18.0508 229.672 17.2812 229.672 16.4766C229.68 15.6641 229.688 14.8516 229.695 14.0391C229.703 13.2266 229.711 12.4297 229.719 11.6484C229.727 10.8594 229.738 10.1133 229.754 9.41016C229.777 8.06641 229.824 6.86719 229.895 5.8125C229.965 4.75781 230.078 3.86719 230.234 3.14062C230.391 2.41406 230.602 1.86328 230.867 1.48828C231.141 1.10547 231.484 0.914062 231.898 0.914062C232.227 0.914062 232.504 1.00781 232.73 1.19531C232.957 1.375 233.141 1.62109 233.281 1.93359C233.422 2.23828 233.523 2.59766 233.586 3.01172C233.648 3.42578 233.68 3.85937 233.68 4.3125C233.68 5.26562 233.598 6.1875 233.434 7.07812C233.27 7.96875 233.047 8.83203 232.766 9.66797C232.484 10.5039 232.152 11.3203 231.77 12.1172C231.395 12.9141 230.992 13.6992 230.562 14.4727C230.562 14.793 230.562 15.1406 230.562 15.5156C230.562 15.8828 230.562 16.2539 230.562 16.6289C230.562 16.9961 230.559 17.3516 230.551 17.6953C230.551 18.0312 230.551 18.3242 230.551 18.5742ZM230.586 12.668C230.906 12.0664 231.199 11.4336 231.465 10.7695C231.738 10.0977 231.973 9.40625 232.168 8.69531C232.363 7.98438 232.516 7.25781 232.625 6.51562C232.734 5.77344 232.789 5.02734 232.789 4.27734C232.789 3.90234 232.77 3.5625 232.73 3.25781C232.699 2.95312 232.645 2.69531 232.566 2.48438C232.496 2.26562 232.402 2.09766 232.285 1.98047C232.176 1.85547 232.047 1.79297 231.898 1.79297C231.742 1.79297 231.605 1.88672 231.488 2.07422C231.371 2.26172 231.27 2.51172 231.184 2.82422C231.098 3.13672 231.023 3.49609 230.961 3.90234C230.906 4.30859 230.859 4.73438 230.82 5.17969C230.781 5.61719 230.75 6.05859 230.727 6.50391C230.703 6.94141 230.684 7.35547 230.668 7.74609C230.66 8.12891 230.652 8.46875 230.645 8.76562C230.645 9.0625 230.645 9.28516 230.645 9.43359C230.637 9.74609 230.629 10.0234 230.621 10.2656C230.621 10.5078 230.617 10.7461 230.609 10.9805C230.602 11.2148 230.594 11.4648 230.586 11.7305C230.586 11.9961 230.586 12.3086 230.586 12.668ZM230.551 20.0156C230.551 20.5078 230.547 20.9648 230.539 21.3867C230.539 21.8164 230.539 22.207 230.539 22.5586C230.539 23.2852 230.543 24.0039 230.551 24.7148C230.559 25.4258 230.594 26.0625 230.656 26.625C230.727 27.1953 230.828 27.6523 230.961 27.9961C231.102 28.3477 231.301 28.5234 231.559 28.5234C231.793 28.5234 231.984 28.418 232.133 28.207C232.281 27.9961 232.395 27.7461 232.473 27.457C232.559 27.168 232.617 26.8711 232.648 26.5664C232.68 26.2695 232.695 26.0273 232.695 25.8398C232.695 25.3633 232.648 24.8633 232.555 24.3398C232.469 23.8164 232.332 23.2969 232.145 22.7812C231.965 22.2734 231.742 21.7812 231.477 21.3047C231.211 20.8281 230.902 20.3984 230.551 20.0156Z" fill="#FFB800"/>
<path d="M84.2076 50H80.3466V42.413H71.8416V50H68.0076V31.991H71.8416V39.065H80.3466V31.991H84.2076V50ZM94.8846 50H87.7566V31.991H94.8576C97.6836 31.991 99.9786 32.819 101.743 34.475C103.525 36.131 104.416 38.3 104.416 40.982C104.416 43.7 103.534 45.887 101.77 47.543C100.006 49.181 97.7106 50 94.8846 50ZM94.8576 46.625C96.5856 46.625 97.9536 46.085 98.9616 45.005C99.9876 43.925 100.501 42.584 100.501 40.982C100.501 39.344 100.006 38.003 99.0156 36.959C98.0436 35.897 96.6666 35.366 94.8846 35.366H91.5906V46.625H94.8576ZM110.97 50H107.136V31.991H119.88V35.366H110.97V39.146H119.691V42.521H110.97V50ZM131.309 50.324C128.555 50.324 126.26 49.46 124.424 47.732C122.606 45.986 121.697 43.745 121.697 41.009C121.697 38.255 122.606 36.014 124.424 34.286C126.26 32.558 128.555 31.694 131.309 31.694C134.675 31.694 137.177 33.161 138.815 36.095L135.521 37.715C135.125 36.959 134.54 36.338 133.766 35.852C133.01 35.348 132.191 35.096 131.309 35.096C129.671 35.096 128.312 35.654 127.232 36.77C126.17 37.886 125.639 39.299 125.639 41.009C125.639 42.719 126.17 44.132 127.232 45.248C128.312 46.364 129.671 46.922 131.309 46.922C132.191 46.922 133.01 46.679 133.766 46.193C134.54 45.689 135.125 45.059 135.521 44.303L138.815 45.896C137.141 48.848 134.639 50.324 131.309 50.324ZM154.458 50.324C151.254 50.324 148.698 49.37 146.79 47.462L148.896 44.465C150.462 46.103 152.37 46.922 154.62 46.922C155.628 46.922 156.402 46.733 156.942 46.355C157.482 45.959 157.752 45.482 157.752 44.924C157.752 44.438 157.491 44.042 156.969 43.736C156.465 43.412 155.826 43.178 155.052 43.034C154.296 42.89 153.468 42.692 152.568 42.44C151.668 42.17 150.831 41.864 150.057 41.522C149.301 41.18 148.662 40.64 148.14 39.902C147.636 39.164 147.384 38.264 147.384 37.202C147.384 35.654 148.005 34.358 149.247 33.314C150.489 32.252 152.145 31.721 154.215 31.721C157.077 31.721 159.417 32.558 161.235 34.232L159.102 37.094C157.68 35.78 155.934 35.123 153.864 35.123C153.072 35.123 152.451 35.285 152.001 35.609C151.551 35.933 151.326 36.365 151.326 36.905C151.326 37.337 151.578 37.697 152.082 37.985C152.604 38.273 153.243 38.498 153.999 38.66C154.773 38.804 155.601 39.011 156.483 39.281C157.383 39.551 158.211 39.866 158.967 40.226C159.741 40.568 160.38 41.117 160.884 41.873C161.406 42.611 161.667 43.502 161.667 44.546C161.667 46.274 161.046 47.669 159.804 48.731C158.58 49.793 156.798 50.324 154.458 50.324ZM170.269 50.324C168.253 50.324 166.588 49.694 165.274 48.434C163.96 47.174 163.303 45.518 163.303 43.466C163.303 41.558 163.942 39.947 165.22 38.633C166.498 37.301 168.109 36.635 170.053 36.635C171.997 36.635 173.572 37.301 174.778 38.633C175.984 39.947 176.587 41.666 176.587 43.79V44.6H166.894C167.02 45.446 167.407 46.148 168.055 46.706C168.721 47.246 169.585 47.516 170.647 47.516C171.241 47.516 171.862 47.408 172.51 47.192C173.176 46.958 173.707 46.643 174.103 46.247L175.642 48.515C174.328 49.721 172.537 50.324 170.269 50.324ZM173.293 42.224C173.221 41.486 172.915 40.838 172.375 40.28C171.853 39.722 171.079 39.443 170.053 39.443C169.063 39.443 168.298 39.722 167.758 40.28C167.236 40.82 166.939 41.468 166.867 42.224H173.293ZM185.139 50.324C183.141 50.324 181.485 49.685 180.171 48.407C178.875 47.111 178.227 45.464 178.227 43.466C178.227 41.468 178.875 39.83 180.171 38.552C181.485 37.274 183.141 36.635 185.139 36.635C187.443 36.635 189.162 37.418 190.296 38.984L188.055 41.09C187.425 40.154 186.507 39.686 185.301 39.686C184.257 39.686 183.402 40.037 182.736 40.739C182.088 41.423 181.764 42.332 181.764 43.466C181.764 44.6 182.088 45.518 182.736 46.22C183.402 46.922 184.257 47.273 185.301 47.273C186.471 47.273 187.389 46.796 188.055 45.842L190.296 47.948C189.144 49.532 187.425 50.324 185.139 50.324ZM204.769 50H201.34V48.353C200.134 49.667 198.604 50.324 196.75 50.324C195.346 50.324 194.293 49.964 193.591 49.244C192.889 48.524 192.538 47.516 192.538 46.22V36.959H195.967V44.87C195.967 46.472 196.768 47.273 198.37 47.273C199.576 47.273 200.566 46.778 201.34 45.788V36.959H204.769V50ZM211.603 50H208.174V36.959H211.603V38.714C212.107 38.12 212.728 37.625 213.466 37.229C214.222 36.833 214.987 36.635 215.761 36.635V39.983C215.527 39.929 215.212 39.902 214.816 39.902C214.24 39.902 213.628 40.046 212.98 40.334C212.332 40.622 211.873 40.973 211.603 41.387V50ZM219.604 35.555C219.046 35.555 218.569 35.357 218.173 34.961C217.777 34.547 217.579 34.061 217.579 33.503C217.579 32.945 217.777 32.468 218.173 32.072C218.569 31.676 219.046 31.478 219.604 31.478C220.18 31.478 220.666 31.676 221.062 32.072C221.458 32.468 221.656 32.945 221.656 33.503C221.656 34.061 221.458 34.547 221.062 34.961C220.666 35.357 220.18 35.555 219.604 35.555ZM221.332 50H217.903V36.959H221.332V50ZM229.106 50.324C226.658 50.324 225.434 49.127 225.434 46.733V39.956H223.274V36.959H225.434V33.395H228.863V36.959H231.509V39.956H228.863V45.815C228.863 46.247 228.962 46.598 229.16 46.868C229.376 47.138 229.673 47.273 230.051 47.273C230.609 47.273 231.005 47.138 231.239 46.868L231.968 49.487C231.338 50.045 230.384 50.324 229.106 50.324ZM235.556 35.555C234.998 35.555 234.521 35.357 234.125 34.961C233.729 34.547 233.531 34.061 233.531 33.503C233.531 32.945 233.729 32.468 234.125 32.072C234.521 31.676 234.998 31.478 235.556 31.478C236.132 31.478 236.618 31.676 237.014 32.072C237.41 32.468 237.608 32.945 237.608 33.503C237.608 34.061 237.41 34.547 237.014 34.961C236.618 35.357 236.132 35.555 235.556 35.555ZM237.284 50H233.855V36.959H237.284V50ZM246.813 50.324C244.797 50.324 243.132 49.694 241.818 48.434C240.504 47.174 239.847 45.518 239.847 43.466C239.847 41.558 240.486 39.947 241.764 38.633C243.042 37.301 244.653 36.635 246.597 36.635C248.541 36.635 250.116 37.301 251.322 38.633C252.528 39.947 253.131 41.666 253.131 43.79V44.6H243.438C243.564 45.446 243.951 46.148 244.599 46.706C245.265 47.246 246.129 47.516 247.191 47.516C247.785 47.516 248.406 47.408 249.054 47.192C249.72 46.958 250.251 46.643 250.647 46.247L252.186 48.515C250.872 49.721 249.081 50.324 246.813 50.324ZM249.837 42.224C249.765 41.486 249.459 40.838 248.919 40.28C248.397 39.722 247.623 39.443 246.597 39.443C245.607 39.443 244.842 39.722 244.302 40.28C243.78 40.82 243.483 41.468 243.411 42.224H249.837ZM260.306 50.324C259.172 50.324 258.083 50.144 257.039 49.784C256.013 49.424 255.158 48.929 254.474 48.299L255.959 45.815C256.481 46.301 257.165 46.724 258.011 47.084C258.875 47.444 259.694 47.624 260.468 47.624C261.926 47.624 262.655 47.165 262.655 46.247C262.655 45.923 262.466 45.662 262.088 45.464C261.71 45.248 261.233 45.104 260.657 45.032C260.081 44.942 259.46 44.807 258.794 44.627C258.128 44.429 257.507 44.213 256.931 43.979C256.355 43.727 255.878 43.331 255.5 42.791C255.122 42.233 254.933 41.549 254.933 40.739C254.933 39.587 255.41 38.615 256.364 37.823C257.318 37.031 258.623 36.635 260.279 36.635C262.277 36.635 264.023 37.229 265.517 38.417L264.14 40.847C263.726 40.415 263.168 40.055 262.466 39.767C261.764 39.479 261.035 39.335 260.279 39.335C259.667 39.335 259.172 39.452 258.794 39.686C258.416 39.92 258.227 40.226 258.227 40.604C258.227 40.946 258.488 41.216 259.01 41.414C259.55 41.594 260.198 41.756 260.954 41.9C261.728 42.044 262.493 42.242 263.249 42.494C264.005 42.728 264.644 43.16 265.166 43.79C265.706 44.402 265.976 45.194 265.976 46.166C265.976 47.39 265.472 48.389 264.464 49.163C263.456 49.937 262.07 50.324 260.306 50.324Z" fill="white"/>
</svg>
