<svg width="24" height="24" viewBox="0 0 24 24" fill="none" xmlns="http://www.w3.org/2000/svg">
<g clip-path="url(#clip0_1_3113)">
<path fill-rule="evenodd" clip-rule="evenodd" d="M11.5207 2C9.01528 2 6.73285 2.82896 5.38225 3.50624C5.26022 3.56735 5.14652 3.62736 5.04058 3.68514C4.83092 3.79959 4.65231 3.90627 4.51032 4.00017L6.04673 6.26591L6.77001 6.55427C9.59657 7.98272 13.3871 7.98272 16.2142 6.55427L17.0351 6.12757L18.4878 4.00017C18.1869 3.80352 17.874 3.62593 17.551 3.46846C16.207 2.7984 13.9784 2 11.5207 2ZM7.94756 4.56466C7.4035 4.46268 6.86615 4.32761 6.33849 4.16018C7.60367 3.59736 9.48896 3.00008 11.5207 3.00008C12.9279 3.00008 14.2585 3.28677 15.3589 3.65014C14.0694 3.83182 12.6932 4.14018 11.382 4.51965C10.3504 4.81857 9.14452 4.78634 7.94756 4.56466ZM16.8 7.37823L16.6635 7.44712C13.5541 9.01836 9.42962 9.01836 6.32018 7.44712L6.19095 7.38156C1.51959 12.5159 -2.04689 22 11.5207 22C25.0883 22 21.4347 12.3386 16.8 7.37823Z" fill="#292D32"/>
<path fill-rule="evenodd" clip-rule="evenodd" d="M11.5207 2C9.01528 2 6.73285 2.82896 5.38225 3.50624C5.26022 3.56735 5.14652 3.62736 5.04058 3.68514C4.83092 3.79959 4.65231 3.90627 4.51032 4.00017L6.04673 6.26591L6.77001 6.55427C9.59657 7.98272 13.3871 7.98272 16.2142 6.55427L17.0351 6.12757L18.4878 4.00017C18.1869 3.80352 17.874 3.62593 17.551 3.46846C16.207 2.7984 13.9784 2 11.5207 2ZM7.94756 4.56466C7.4035 4.46268 6.86615 4.32761 6.33849 4.16018C7.60367 3.59736 9.48896 3.00008 11.5207 3.00008C12.9279 3.00008 14.2585 3.28677 15.3589 3.65014C14.0694 3.83182 12.6932 4.14018 11.382 4.51965C10.3504 4.81857 9.14452 4.78634 7.94756 4.56466ZM16.8 7.37823L16.6635 7.44712C13.5541 9.01836 9.42962 9.01836 6.32018 7.44712L6.19095 7.38156C1.51959 12.5159 -2.04689 22 11.5207 22C25.0883 22 21.4347 12.3386 16.8 7.37823Z" fill="url(#paint0_linear_1_3113)"/>
<path d="M13.9592 12.4744L13.7106 13.3516H9.05504L9.30362 12.4744H13.9592ZM11.6935 18L9.15092 14.9141L9.14382 14.2216H10.4045C10.7193 14.2216 10.9857 14.1731 11.2035 14.076C11.4213 13.9789 11.587 13.8381 11.7006 13.6534C11.8143 13.4664 11.8711 13.2391 11.8711 12.9716C11.8711 12.5739 11.7527 12.2578 11.516 12.0234C11.2792 11.7891 10.9087 11.6719 10.4045 11.6719H9.05504L9.31428 10.7273H10.4045C10.9916 10.7273 11.4757 10.8208 11.8569 11.0078C12.238 11.1948 12.5221 11.4541 12.7092 11.7855C12.8962 12.117 12.9897 12.4993 12.9897 12.9325C12.9897 13.3184 12.9128 13.6676 12.7589 13.9801C12.605 14.2926 12.36 14.5471 12.0238 14.7436C11.6876 14.9401 11.2461 15.0549 10.6992 15.0881L10.6673 15.0952L12.9897 17.9396V18H11.6935ZM13.9627 10.7273L13.7106 11.6115L9.98899 11.5902L10.2411 10.7273H13.9627Z" fill="white"/>
</g>
<defs>
<linearGradient id="paint0_linear_1_3113" x1="21" y1="2.55556" x2="11.4996" y2="27.021" gradientUnits="userSpaceOnUse">
<stop stop-color="#81BF82"/>
<stop offset="0.979272" stop-color="#23C1C3"/>
</linearGradient>
<clipPath id="clip0_1_3113">
<rect width="24" height="24" fill="white"/>
</clipPath>
</defs>
</svg>
