<svg width="28" height="21" viewBox="0 0 28 21" fill="none" xmlns="http://www.w3.org/2000/svg">
<path d="M12.0027 20.9985C9.19292 20.9985 6.38312 21.0032 3.57332 20.9961C2.5139 20.9935 1.69875 20.5452 1.20509 19.5621C1.02382 19.1861 0.933322 18.7715 0.94113 18.3527C0.936413 15.1093 0.936004 11.8659 0.9399 8.62255C0.942156 7.07479 2.04013 5.96931 3.56511 5.96931C9.20167 5.9682 14.8384 5.9682 20.4752 5.96931C22.0063 5.96931 23.0786 7.05087 23.0799 8.60167C23.0837 11.8625 23.0837 15.1232 23.0799 18.384C23.0784 19.6469 22.3809 20.5735 21.1914 20.908C20.9434 20.9733 20.688 21.0041 20.4319 20.9997C17.6222 20.9982 14.8125 20.9978 12.0027 20.9985Z" fill="#4355C3"/>
<path d="M12.0007 18.4935C10.0449 18.4935 8.08887 18.4892 6.13309 18.4996C5.91497 18.5007 5.85159 18.439 5.82134 18.2237C5.66075 17.0806 5.01881 16.3643 3.92247 16.0711C3.88993 16.0608 3.85691 16.0521 3.82351 16.0452C3.39374 15.9744 3.39374 15.9746 3.39374 15.5393C3.39374 14.0957 3.39825 12.6521 3.38851 11.2086C3.38717 11.0116 3.45855 10.9474 3.62929 10.9359C4.80971 10.8537 5.74782 9.82865 5.83406 8.70822C5.84872 8.51706 5.90728 8.4688 6.09309 8.46911C10.039 8.47496 13.985 8.47496 17.9311 8.46911C18.123 8.46911 18.1915 8.51403 18.207 8.72148C18.2913 9.84713 19.2504 10.8316 20.3471 10.9256C20.5587 10.9437 20.632 11.0141 20.6302 11.2426C20.6194 12.7383 20.6194 14.2341 20.6302 15.7298C20.632 15.9634 20.5502 16.0233 20.3413 16.0405C19.2732 16.1287 18.3007 17.1042 18.2115 18.1988C18.1899 18.4638 18.0946 18.4989 17.8686 18.498C15.9125 18.4901 13.9566 18.4935 12.0007 18.4935Z" fill="#8D9AEC"/>
<path d="M8.35121 13.6213C8.32408 13.1351 8.39208 12.6483 8.55126 12.1891C8.71045 11.7298 8.95765 11.3074 9.27849 10.9464C9.59933 10.5853 9.98742 10.2928 10.4202 10.0859C10.853 9.87894 11.3218 9.76168 11.7995 9.74091C13.8042 9.61932 15.5246 11.0644 15.685 13.1578C15.8491 15.2931 14.4422 16.8795 12.617 17.1856C10.3888 17.5591 8.36526 15.8198 8.35121 13.6213Z" fill="#FEFEFE"/>
<path fill-rule="evenodd" clip-rule="evenodd" d="M21.5627 11C24.6002 11 27.0627 8.53747 27.0627 5.5C27.0627 2.46253 24.6002 0 21.5627 0C18.5253 0 16.0627 2.46253 16.0627 5.5C16.0627 8.53747 18.5253 11 21.5627 11ZM21.5627 2.07778C21.7991 2.07778 21.9905 2.26923 21.9905 2.50556V5.25556H24.3739C24.6102 5.25556 24.8016 5.447 24.8016 5.68333C24.8016 5.91966 24.6102 6.11111 24.3739 6.11111H21.5627C21.3264 6.11111 21.135 5.91966 21.135 5.68333V2.50556C21.135 2.26923 21.3264 2.07778 21.5627 2.07778Z" fill="#202C74"/>
</svg>
