<svg width="84" height="87" viewBox="0 0 84 87" fill="none" xmlns="http://www.w3.org/2000/svg">
<ellipse opacity="0.1" cx="42" cy="80.5391" rx="41.25" ry="5.625" fill="#D5DBFF"/>
<path d="M71.6602 50.5374H16.2216C14.0904 50.5506 12.0316 49.7647 10.4513 48.3347C9.70654 47.6626 9.10962 46.8431 8.6984 45.9281C8.28718 45.013 8.07063 44.0225 8.0625 43.0194L8.0625 13.6197C8.07063 12.6166 8.28718 11.6261 8.6984 10.711C9.10962 9.79603 9.70654 8.97647 10.4513 8.30438C12.0316 6.87437 14.0904 6.08848 16.2216 6.10173H71.6602C72.7205 6.10437 73.7715 6.29881 74.7625 6.67566C75.7403 7.04564 76.6388 7.59838 77.4098 8.30438C78.158 8.99018 78.7595 9.82036 79.1782 10.7449C79.5865 11.6501 79.7979 12.6318 79.7986 13.6249V43.0194C79.7912 44.0234 79.575 45.0149 79.1638 45.9309C78.7525 46.8468 78.1552 47.6672 77.4098 48.3399C75.8338 49.7628 73.7835 50.5464 71.6602 50.5374Z" fill="#27327B"/>
<path d="M8.10747 52.3331C7.86842 54.7567 8.58887 57.1775 10.1142 59.076C11.6396 60.9745 13.8484 62.1994 16.2666 62.488H71.7052C74.1234 62.1994 76.3321 60.9745 77.8575 59.076C79.3829 57.1775 80.1033 54.7567 79.8643 52.3331V22.7266H8.10747V52.3331Z" fill="#27327B"/>
<path d="M64.8316 61.9998H9.18913C7.05007 62.0165 4.98369 61.0261 3.39758 59.2239C2.65009 58.3769 2.05097 57.3441 1.63824 56.1909C1.2255 55.0378 1.00816 53.7895 1 52.5253L1 15.4747C1.00816 14.2105 1.2255 12.9622 1.63824 11.809C2.05097 10.6559 2.65009 9.62308 3.39758 8.77608C4.98369 6.97392 7.05007 5.98351 9.18913 6.00021H64.8316C65.8958 6.00353 66.9507 6.24858 67.9454 6.7235C68.9268 7.18976 69.8285 7.88635 70.6024 8.77608C71.3533 9.64035 71.957 10.6866 72.3773 11.8517C72.7871 12.9925 72.9993 14.2296 73 15.4812V52.5253C72.9926 53.7906 72.7756 55.0402 72.3628 56.1945C71.9501 57.3488 71.3505 58.3827 70.6024 59.2304C69.0206 61.0236 66.9628 62.0111 64.8316 61.9998Z" fill="#4355C3"/>
<path d="M21.2151 10.6258C21.213 11.4701 20.9433 12.2919 20.4447 12.9732C19.921 13.6807 19.2022 14.2198 18.3765 14.5244C17.5323 14.8441 16.6167 14.9264 15.7291 14.7622C14.8553 14.6063 14.0434 14.2066 13.3869 13.6092C12.7571 13.0349 12.3201 12.2801 12.1356 11.4479C11.9579 10.6277 12.0486 9.77217 12.3941 9.00742C12.7547 8.21241 13.3478 7.54537 14.0952 7.09432C14.8667 6.63335 15.7509 6.39531 16.6495 6.40664C17.8449 6.39956 18.9997 6.84043 19.8863 7.6424C20.3023 8.02054 20.6352 8.48098 20.864 8.99455C21.0927 9.50811 21.2123 10.0636 21.2151 10.6258Z" fill="#070E33"/>
<path d="M41.4963 10.6263C41.4942 11.4705 41.2245 12.2924 40.7259 12.9737C40.2023 13.6811 39.4835 14.2203 38.6577 14.5249C37.8136 14.8446 36.898 14.9269 36.0104 14.7627C35.1366 14.6067 34.3247 14.207 33.6681 13.6097C33.0383 13.0354 32.6013 12.2805 32.4169 11.4484C32.2392 10.6282 32.3298 9.77264 32.6754 9.0079C33.0305 8.21576 33.6161 7.54906 34.3558 7.09479C35.1363 6.62825 36.032 6.39 36.9411 6.40711C38.1365 6.40004 39.2913 6.84091 40.1778 7.64287C40.592 8.02193 40.923 8.48278 41.15 8.9963C41.3769 9.50982 41.4949 10.0648 41.4963 10.6263Z" fill="#070E33"/>
<path d="M61.7776 10.6123C61.7755 11.4565 61.5058 12.2784 61.0072 12.9597C60.4835 13.6671 59.7647 14.2063 58.939 14.5109C58.0948 14.8304 57.1792 14.9126 56.2916 14.7487C55.4178 14.5927 54.6059 14.193 53.9494 13.5957C53.3196 13.0214 52.8826 12.2665 52.6981 11.4344C52.5204 10.6142 52.6111 9.75866 52.9566 8.99391C53.3145 8.20033 53.9038 7.53347 54.6474 7.08081C55.4132 6.61262 56.2937 6.36565 57.1913 6.36727C58.3868 6.3602 59.5415 6.80107 60.4281 7.60303C60.8508 7.98246 61.1894 8.44629 61.4218 8.96462C61.6542 9.48294 61.7754 10.0442 61.7776 10.6123Z" fill="#070E33"/>
<path d="M16.6657 12.2085C15.7012 12.2136 14.7698 11.8576 14.0546 11.2106C13.715 10.9052 13.443 10.5321 13.256 10.1154C13.069 9.69872 12.9712 9.24753 12.9688 8.7908V3.40826C12.972 2.95366 13.0697 2.5047 13.2557 2.0899C13.4418 1.6751 13.712 1.30353 14.0494 0.998791C14.7681 0.355611 15.6987 0 16.6631 0C17.6276 0 18.5581 0.355611 19.2768 0.998791C19.6142 1.30353 19.8844 1.6751 20.0705 2.0899C20.2565 2.5047 20.3542 2.95366 20.3575 3.40826V8.7908C20.3542 9.2454 20.2565 9.69436 20.0705 10.1092C19.8844 10.524 19.6142 10.8955 19.2768 11.2003C18.5631 11.851 17.6315 12.2107 16.6657 12.2085Z" fill="#4355C3"/>
<path d="M36.9001 12.2085C36.416 12.2095 35.9359 12.1219 35.4834 11.95C35.0402 11.7819 34.6331 11.531 34.2838 11.2106C33.9446 10.8998 33.6719 10.5233 33.4824 10.1041C33.2969 9.69121 33.2017 9.24345 33.2031 8.7908V3.40826C33.2063 2.95366 33.3041 2.5047 33.4901 2.0899C33.6762 1.6751 33.9464 1.30353 34.2838 0.998791C35.0025 0.355611 35.933 0 36.8975 0C37.8619 0 38.7925 0.355611 39.5112 0.998791C39.8486 1.30353 40.1188 1.6751 40.3049 2.0899C40.4909 2.5047 40.5886 2.95366 40.5919 3.40826V8.7908C40.5886 9.2454 40.4909 9.69436 40.3049 10.1092C40.1188 10.524 39.8486 10.8955 39.5112 11.2003C38.7959 11.8472 37.8645 12.2032 36.9001 12.1982" fill="#4355C3"/>
<path d="M57.1813 12.2085C56.2169 12.2136 55.2854 11.8576 54.5702 11.2106C54.2306 10.9052 53.9586 10.5321 53.7716 10.1154C53.5846 9.69872 53.4868 9.24753 53.4844 8.7908V3.40826C53.4876 2.95366 53.5853 2.5047 53.7713 2.0899C53.9574 1.6751 54.2277 1.30353 54.565 0.998791C55.2837 0.355611 56.2143 0 57.1787 0C58.1432 0 59.0738 0.355611 59.7924 0.998791C60.1317 1.3026 60.4039 1.67376 60.5917 2.08861C60.7796 2.50346 60.8789 2.95289 60.8834 3.40826V8.7908C60.8802 9.2454 60.7825 9.69436 60.5965 10.1092C60.4104 10.524 60.1401 10.8955 59.8028 11.2003C59.0864 11.8534 58.1507 12.2133 57.1813 12.2085Z" fill="#4355C3"/>
<path d="M2.04014 52.4352L2.04497 52.3862V52.337V23.7305H71.8018V52.337V52.3862L71.8066 52.4352C72.02 54.5984 71.3769 56.759 70.0155 58.4535C68.666 60.133 66.7174 61.222 64.5815 61.492H9.26525C7.12931 61.222 5.18071 60.133 3.8313 58.4535C2.46982 56.759 1.82678 54.5984 2.04014 52.4352Z" fill="white" fill-opacity="0.8" stroke="#6477EA" stroke-width="2"/>
<path d="M32.5759 46.0682C31.8213 44.8199 31.4055 43.4002 31.3643 41.949C31.3546 41.6062 31.6474 41.3407 31.99 41.3563V41.3563C32.3327 41.3718 32.5951 41.6626 32.6092 42.0053C32.6588 43.2106 33.0114 44.3876 33.6389 45.4256C34.3738 46.6414 35.4528 47.6119 36.7393 48.2144C38.0257 48.817 39.462 49.0245 40.8665 48.8108C42.2709 48.5971 43.5804 47.9717 44.6294 47.0137C45.6784 46.0557 46.4198 44.8082 46.7598 43.4289C47.0998 42.0496 47.0231 40.6004 46.5395 39.2646C46.0559 37.9289 45.187 36.7665 44.0428 35.9246C43.0659 35.2057 41.9256 34.7479 40.7298 34.5894C40.3897 34.5443 40.1239 34.2567 40.1394 33.9141V33.9141C40.155 33.5714 40.4458 33.3039 40.7864 33.3446C42.2279 33.517 43.6041 34.0595 44.779 34.9241C46.1211 35.9117 47.1402 37.275 47.7075 38.8418C48.2747 40.4085 48.3647 42.1083 47.9659 43.7262C47.5671 45.344 46.6975 46.8073 45.4671 47.9309C44.2366 49.0546 42.7007 49.7881 41.0533 50.0388C39.406 50.2895 37.7214 50.0461 36.2124 49.3393C34.7034 48.6326 33.4379 47.4942 32.5759 46.0682Z" stroke="#6477EA" stroke-width="3"/>
<path d="M27.75 41.9895L32.0638 37.6758L36.3775 41.9895" stroke="#6477EA" stroke-width="4" stroke-linecap="round" stroke-linejoin="round"/>
</svg>
