<svg width="84" height="87" viewBox="0 0 84 87" fill="none" xmlns="http://www.w3.org/2000/svg">
<ellipse opacity="0.1" cx="42" cy="80.5391" rx="41.25" ry="5.625" fill="#4355C3"/>
<path d="M71.9571 50.5374H16.5185C14.3873 50.5506 12.3285 49.7647 10.7482 48.3347C10.0034 47.6626 9.4065 46.8431 8.99528 45.9281C8.58405 45.013 8.36751 44.0225 8.35938 43.0194L8.35938 13.6197C8.36751 12.6166 8.58405 11.6261 8.99528 10.711C9.4065 9.79603 10.0034 8.97647 10.7482 8.30438C12.3285 6.87437 14.3873 6.08848 16.5185 6.10173H71.9571C73.0173 6.10437 74.0684 6.29881 75.0594 6.67566C76.0372 7.04564 76.9356 7.59838 77.7067 8.30438C78.4548 8.99018 79.0564 9.82036 79.475 10.7449C79.8833 11.6501 80.0948 12.6318 80.0955 13.6249V43.0194C80.0881 44.0234 79.8719 45.0149 79.4606 45.9309C79.0494 46.8468 78.4521 47.6672 77.7067 48.3399C76.1306 49.7628 74.0804 50.5464 71.9571 50.5374Z" fill="#4355C3"/>
<path d="M8.40435 52.3331C8.1653 54.7567 8.88575 57.1775 10.4111 59.076C11.9365 60.9745 14.1452 62.1994 16.5635 62.488H72.002C74.4202 62.1994 76.629 60.9745 78.1544 59.076C79.6797 57.1775 80.4002 54.7567 80.1612 52.3331V22.7266H8.40435V52.3331Z" fill="#4355C3"/>
<path d="M64.9336 50.5374H9.49506C7.36384 50.5506 5.30503 49.7647 3.72473 48.3347C2.97998 47.6626 2.38306 46.8431 1.97184 45.9281C1.56061 45.013 1.34407 44.0225 1.33594 43.0194L1.33594 13.6197C1.34407 12.6166 1.56061 11.6261 1.97184 10.711C2.38306 9.79603 2.97998 8.97647 3.72473 8.30438C5.30503 6.87437 7.36384 6.08848 9.49506 6.10173H64.9336C65.9939 6.10437 67.0449 6.29881 68.0359 6.67566C69.0138 7.04564 69.9122 7.59838 70.6833 8.30438C71.4314 8.99018 72.0329 9.82036 72.4516 10.7449C72.8599 11.6501 73.0714 12.6318 73.0721 13.6249V43.0194C73.0646 44.0234 72.8484 45.0149 72.4372 45.9309C72.026 46.8468 71.4287 47.6672 70.6833 48.3399C69.1072 49.7628 67.0569 50.5464 64.9336 50.5374Z" fill="#4355C3"/>
<path d="M21.512 10.6258C21.5099 11.4701 21.2401 12.2919 20.7416 12.9732C20.2179 13.6807 19.4991 14.2198 18.6733 14.5244C17.8292 14.8441 16.9136 14.9264 16.026 14.7622C15.1522 14.6063 14.3403 14.2066 13.6838 13.6092C13.054 13.0349 12.6169 12.2801 12.4325 11.4479C12.2548 10.6277 12.3454 9.77217 12.691 9.00742C13.0516 8.21241 13.6447 7.54537 14.3921 7.09432C15.1636 6.63335 16.0478 6.39531 16.9464 6.40664C18.1418 6.39956 19.2966 6.84043 20.1831 7.6424C20.5992 8.02054 20.9321 8.48098 21.1609 8.99455C21.3896 9.50811 21.5092 10.0636 21.512 10.6258Z" fill="white"/>
<path d="M41.7932 10.6263C41.7911 11.4705 41.5214 12.2924 41.0228 12.9737C40.4992 13.6811 39.7803 14.2203 38.9546 14.5249C38.1105 14.8446 37.1949 14.9269 36.3073 14.7627C35.4335 14.6067 34.6215 14.207 33.965 13.6097C33.3352 13.0354 32.8982 12.2805 32.7137 11.4484C32.5361 10.6282 32.6267 9.77264 32.9723 9.0079C33.3273 8.21576 33.913 7.54906 34.6527 7.09479C35.4332 6.62825 36.3288 6.39 37.238 6.40711C38.4334 6.40004 39.5882 6.84091 40.4747 7.64287C40.8889 8.02193 41.2199 8.48278 41.4468 8.9963C41.6738 9.50982 41.7917 10.0648 41.7932 10.6263Z" fill="white"/>
<path d="M62.0745 10.6123C62.0724 11.4565 61.8026 12.2784 61.3041 12.9597C60.7804 13.6671 60.0616 14.2063 59.2358 14.5109C58.3917 14.8304 57.4761 14.9126 56.5885 14.7487C55.7147 14.5927 54.9028 14.193 54.2463 13.5957C53.6165 13.0214 53.1794 12.2665 52.995 11.4344C52.8173 10.6142 52.9079 9.75866 53.2535 8.99391C53.6113 8.20033 54.2007 7.53347 54.9443 7.08081C55.7101 6.61262 56.5906 6.36565 57.4882 6.36727C58.6836 6.3602 59.8384 6.80107 60.725 7.60303C61.1477 7.98246 61.4862 8.44629 61.7187 8.96462C61.9511 9.48294 62.0723 10.0442 62.0745 10.6123Z" fill="white"/>
<path d="M16.9626 12.2085C15.9981 12.2136 15.0667 11.8576 14.3514 11.2106C14.0119 10.9052 13.7399 10.5321 13.5529 10.1154C13.3659 9.69872 13.2681 9.24753 13.2656 8.7908V3.40826C13.2688 2.95366 13.3666 2.5047 13.5526 2.0899C13.7386 1.6751 14.0089 1.30353 14.3463 0.998791C15.0649 0.355611 15.9955 0 16.96 0C17.9244 0 18.855 0.355611 19.5737 0.998791C19.911 1.30353 20.1813 1.6751 20.3674 2.0899C20.5534 2.5047 20.6511 2.95366 20.6543 3.40826V8.7908C20.6511 9.2454 20.5534 9.69436 20.3674 10.1092C20.1813 10.524 19.911 10.8955 19.5737 11.2003C18.86 11.851 17.9284 12.2107 16.9626 12.2085Z" fill="#4355C3"/>
<path d="M37.197 12.2085C36.7129 12.2095 36.2327 12.1219 35.7802 11.95C35.3371 11.7819 34.93 11.531 34.5807 11.2106C34.2414 10.8998 33.9688 10.5233 33.7792 10.1041C33.5937 9.69121 33.4985 9.24345 33.5 8.7908V3.40826C33.5032 2.95366 33.601 2.5047 33.787 2.0899C33.973 1.6751 34.2433 1.30353 34.5807 0.998791C35.2993 0.355611 36.2299 0 37.1944 0C38.1588 0 39.0894 0.355611 39.8081 0.998791C40.1454 1.30353 40.4157 1.6751 40.6018 2.0899C40.7878 2.5047 40.8855 2.95366 40.8887 3.40826V8.7908C40.8855 9.2454 40.7878 9.69436 40.6018 10.1092C40.4157 10.524 40.1454 10.8955 39.8081 11.2003C39.0928 11.8472 38.1614 12.2032 37.197 12.1982" fill="#4355C3"/>
<path d="M57.4782 12.2085C56.5137 12.2136 55.5823 11.8576 54.8671 11.2106C54.5275 10.9052 54.2555 10.5321 54.0685 10.1154C53.8815 9.69872 53.7837 9.24753 53.7812 8.7908V3.40826C53.7845 2.95366 53.8822 2.5047 54.0682 2.0899C54.2543 1.6751 54.5245 1.30353 54.8619 0.998791C55.5806 0.355611 56.5111 0 57.4756 0C58.4401 0 59.3706 0.355611 60.0893 0.998791C60.4285 1.3026 60.7008 1.67376 60.8886 2.08861C61.0764 2.50346 61.1758 2.95289 61.1803 3.40826V8.7908C61.1771 9.2454 61.0794 9.69436 60.8933 10.1092C60.7073 10.524 60.437 10.8955 60.0997 11.2003C59.3833 11.8534 58.4476 12.2133 57.4782 12.2085Z" fill="#4355C3"/>
<path d="M2.33702 52.4352L2.34185 52.3862V52.337V23.7305H72.0987V52.337V52.3862L72.1035 52.4352C72.3168 54.5984 71.6738 56.759 70.3123 58.4535C68.9629 60.133 67.0143 61.222 64.8784 61.492H9.56212C7.42618 61.222 5.47758 60.133 4.12817 58.4535C2.76669 56.759 2.12365 54.5984 2.33702 52.4352Z" fill="white" stroke="#6477EA" stroke-width="2"/>
<path d="M32.5759 46.0682C31.8213 44.8199 31.4055 43.4002 31.3643 41.949C31.3546 41.6062 31.6474 41.3407 31.99 41.3563V41.3563C32.3327 41.3718 32.5951 41.6626 32.6092 42.0053C32.6588 43.2106 33.0114 44.3876 33.6389 45.4256C34.3738 46.6414 35.4528 47.6119 36.7393 48.2144C38.0257 48.817 39.462 49.0245 40.8665 48.8108C42.2709 48.5971 43.5804 47.9717 44.6294 47.0137C45.6784 46.0557 46.4198 44.8082 46.7598 43.4289C47.0998 42.0496 47.0231 40.6004 46.5395 39.2646C46.0559 37.9289 45.187 36.7665 44.0428 35.9246C43.0659 35.2057 41.9256 34.7479 40.7298 34.5894C40.3897 34.5443 40.1239 34.2567 40.1394 33.9141V33.9141C40.155 33.5714 40.4458 33.3039 40.7864 33.3446C42.2279 33.517 43.6041 34.0595 44.779 34.9241C46.1211 35.9117 47.1402 37.275 47.7075 38.8418C48.2747 40.4085 48.3647 42.1083 47.9659 43.7262C47.5671 45.344 46.6975 46.8073 45.4671 47.9309C44.2366 49.0546 42.7007 49.7881 41.0533 50.0388C39.406 50.2895 37.7214 50.0461 36.2124 49.3393C34.7034 48.6326 33.4379 47.4942 32.5759 46.0682Z" stroke="#6477EA" stroke-width="3"/>
<path d="M27.75 41.9895L32.0638 37.6758L36.3775 41.9895" stroke="#6477EA" stroke-width="4" stroke-linecap="round" stroke-linejoin="round"/>
</svg>
