<svg width="26" height="26" viewBox="0 0 26 26" fill="none" xmlns="http://www.w3.org/2000/svg">
<circle cx="13" cy="13" r="12.125" fill="#4355C3"/>
<path d="M9.59079 10.2613V16.0795H8.27261L6.17034 13.0227H6.13625V16.0795H4.5567V10.2613H5.89761L7.96579 13.3068H8.01125V10.2613H9.59079ZM10.338 16.0795V10.2613H14.4289V11.5341H11.9175V12.5341H14.1789V13.8068H11.9175V16.0795H10.338ZM20.6462 13.1704C20.6462 13.8181 20.5202 14.3645 20.2683 14.8096C20.0165 15.2528 19.6765 15.589 19.2485 15.8181C18.8204 16.0454 18.3432 16.1591 17.8166 16.1591C17.2863 16.1591 16.8072 16.0445 16.3791 15.8153C15.953 15.5842 15.614 15.2471 15.3621 14.8039C15.1121 14.3589 14.9871 13.8144 14.9871 13.1704C14.9871 12.5227 15.1121 11.9772 15.3621 11.5341C15.614 11.089 15.953 10.7528 16.3791 10.5255C16.8072 10.2964 17.2863 10.1818 17.8166 10.1818C18.3432 10.1818 18.8204 10.2964 19.2485 10.5255C19.6765 10.7528 20.0165 11.089 20.2683 11.5341C20.5202 11.9772 20.6462 12.5227 20.6462 13.1704ZM19.0212 13.1704C19.0212 12.8219 18.9748 12.5284 18.882 12.2897C18.7911 12.0492 18.6557 11.8674 18.4757 11.7443C18.2977 11.6193 18.078 11.5568 17.8166 11.5568C17.5553 11.5568 17.3346 11.6193 17.1547 11.7443C16.9767 11.8674 16.8413 12.0492 16.7485 12.2897C16.6576 12.5284 16.6121 12.8219 16.6121 13.1704C16.6121 13.5189 16.6576 13.8134 16.7485 14.0539C16.8413 14.2926 16.9767 14.4744 17.1547 14.5994C17.3346 14.7225 17.5553 14.7841 17.8166 14.7841C18.078 14.7841 18.2977 14.7225 18.4757 14.5994C18.6557 14.4744 18.7911 14.2926 18.882 14.0539C18.9748 13.8134 19.0212 13.5189 19.0212 13.1704Z" fill="white"/>
<mask id="mask0_437_2112" style="mask-type:alpha" maskUnits="userSpaceOnUse" x="0" y="0" width="26" height="26">
<circle cx="13" cy="13" r="12.125" fill="#8D9AEC"/>
</mask>
<g mask="url(#mask0_437_2112)">
<circle cx="5.42188" cy="1.38017" r="7.57812" fill="#8D9AEC"/>
<circle cx="21.5882" cy="25.6302" r="7.57812" fill="#8D9AEC"/>
</g>
</svg>
