<svg width="18" height="25" viewBox="0 0 18 25" fill="none" xmlns="http://www.w3.org/2000/svg">
<g clip-path="url(#clip0_437_2098)">
<path d="M17.6843 6.50383C17.7337 6.54714 17.7713 6.60222 17.7936 6.66395C17.816 6.72569 17.8224 6.79208 17.8123 6.85695C17.811 11.926 17.8092 16.9948 17.8066 22.0634C17.8043 23.3245 16.8183 24.2471 15.5023 24.2489C12.1673 24.2534 8.83226 24.2539 5.49735 24.2504C4.53855 24.2504 3.57984 24.2504 2.62121 24.2504C1.13686 24.2492 0.188602 23.3063 0.188357 21.8252C0.187214 15.6039 0.187214 9.38264 0.188357 3.16129C0.188357 1.70522 1.14751 0.753109 2.60738 0.752619C5.616 0.75164 8.62463 0.75164 11.6333 0.752619C11.7853 0.752619 11.9404 0.737559 12.0589 0.864042C12.0832 1.01453 12.0941 1.16686 12.0916 1.31928C12.0899 2.90653 12.0897 4.4937 12.091 6.08079C12.091 6.51962 12.1 6.52856 12.5307 6.52881C14.2093 6.53003 15.8879 6.53003 17.5666 6.52881C17.6073 6.53023 17.6477 6.52165 17.6843 6.50383Z" fill="#4355C3"/>
<path d="M17.684 6.50292C17.6567 6.66589 17.5271 6.63687 17.4204 6.6376C15.699 6.63919 13.9775 6.63613 12.2559 6.64238C12.0448 6.64323 11.977 6.58116 11.9779 6.36284C11.9856 4.61083 11.9808 2.85868 11.9807 1.10666C11.9807 1.01838 11.9541 0.919085 12.0587 0.863129L17.684 6.50292Z" fill="#8D9AEC"/>
<path d="M9.91131 17.0284L9.48273 17.0309C9.54399 16.9835 9.61915 16.9575 9.6966 16.9571C9.77406 16.9567 9.84951 16.9817 9.91131 17.0284Z" fill="#AAB1BD"/>
<rect x="4.38391" y="10.8214" width="8.39286" height="1.67857" rx="0.839286" fill="white"/>
<rect x="4.38391" y="15.8572" width="8.39286" height="1.67857" rx="0.839286" fill="white"/>
</g>
<defs>
<clipPath id="clip0_437_2098">
<rect width="17.625" height="23.5" fill="white" transform="translate(0.1875 0.75)"/>
</clipPath>
</defs>
</svg>
