<svg width="24" height="24" viewBox="0 0 24 24" fill="none" xmlns="http://www.w3.org/2000/svg">
<g clip-path="url(#clip0_1_3105)">
<path d="M15 11V11.015" stroke="#2850E7" stroke-width="2" stroke-linecap="round" stroke-linejoin="round"/>
<path d="M4.36716 8C3.85546 7.62396 3.46246 7.11996 3.2316 6.54371C3.00074 5.96746 2.941 5.3414 3.059 4.73472C3.17699 4.12804 3.46812 3.56436 3.90021 3.10599C4.33229 2.64763 4.88851 2.31241 5.50738 2.13741C6.12626 1.9624 6.78369 1.95441 7.40702 2.11433C8.03034 2.27424 8.59529 2.59583 9.03941 3.04356C9.48354 3.49128 9.78956 4.0477 9.92363 4.65132C10.0577 5.25494 10.0146 5.88225 9.79916 6.46392" fill="url(#paint0_linear_1_3105)"/>
<path d="M16.4459 3V7.25041C17.8209 8.05078 18.8678 9.31744 19.399 10.8235H20.8889C21.1836 10.8235 21.4662 10.9413 21.6746 11.1509C21.8829 11.3605 22 11.6448 22 11.9412V14.1765C22 14.4729 21.8829 14.7572 21.6746 14.9668C21.4662 15.1764 21.1836 15.2941 20.8889 15.2941H19.3979C19.0246 16.3559 18.3902 17.3059 17.5558 18.0581V20.3235C17.5558 20.7682 17.3802 21.1946 17.0677 21.509C16.7551 21.8234 16.3312 22 15.8892 22C15.4472 22 15.0233 21.8234 14.7108 21.509C14.3982 21.1946 14.2226 20.7682 14.2226 20.3235V19.6719C13.8555 19.7338 13.4839 19.7648 13.1116 19.7647H8.66738C8.29512 19.7648 7.92348 19.7338 7.55633 19.6719V20.3235C7.55633 20.7682 7.38075 21.1946 7.0682 21.509C6.75566 21.8234 6.33176 22 5.88975 22C5.44775 22 5.02385 21.8234 4.71131 21.509C4.39876 21.1946 4.22318 20.7682 4.22318 20.3235V18.0882V18.0581C3.21652 17.1527 2.50691 15.9612 2.18827 14.6413C1.86963 13.3213 1.95698 11.9351 2.43876 10.6662C2.92055 9.39727 3.77405 8.30544 4.88629 7.53522C5.99853 6.76501 7.31707 6.35272 8.66738 6.35294H11.445L16.4447 3H16.4459Z" fill="url(#paint1_linear_1_3105)"/>
</g>
<defs>
<linearGradient id="paint0_linear_1_3105" x1="8.97213" y1="6.17673" x2="5.5507" y2="-1.43167" gradientUnits="userSpaceOnUse">
<stop stop-color="#49BFF2"/>
<stop offset="1" stop-color="#F7F7FF"/>
</linearGradient>
<linearGradient id="paint1_linear_1_3105" x1="19.0632" y1="16.2263" x2="7.49922" y2="-6.97556" gradientUnits="userSpaceOnUse">
<stop stop-color="#16AFF1"/>
<stop offset="1" stop-color="#F7F7FF"/>
</linearGradient>
<clipPath id="clip0_1_3105">
<rect width="24" height="24" fill="white"/>
</clipPath>
</defs>
</svg>
