<svg width="24" height="24" viewBox="0 0 24 24" fill="none" xmlns="http://www.w3.org/2000/svg">
<path d="M3.00008 14.0995C3.00008 13.0934 3.00381 12.0873 3.00008 11.0812C2.99263 9.78823 3.48439 8.74116 4.48653 7.9214C6.05866 6.63213 7.61589 5.33168 9.1843 4.03868C10.8607 2.65626 13.1258 2.65253 14.8023 4.03496C16.4042 5.35404 18.0024 6.67312 19.5969 7.99965C20.4873 8.74116 20.9716 9.70625 20.9827 10.8651C21.0014 13.071 21.0126 15.2807 20.9753 17.4866C20.9492 19.1224 19.7273 20.5607 18.1402 20.9147C17.8832 20.9743 17.6112 20.9892 17.3467 20.9929C16.7916 21.0041 16.2365 21.0004 15.6815 20.9929C14.5601 20.9855 13.8076 20.2365 13.8038 19.1112C13.8038 18.1908 13.8038 17.2705 13.8038 16.3464C13.8038 15.5862 13.5319 14.9528 12.865 14.5466C11.8629 13.9355 10.5776 14.5205 10.2796 15.7166C10.2237 15.9402 10.2051 16.175 10.2013 16.406C10.1939 17.3487 10.2088 18.2914 10.1939 19.2342C10.179 20.1024 9.5941 20.7917 8.7447 20.9631C8.61431 20.9892 8.4802 20.9929 8.34608 20.9929C7.76864 20.9929 7.19492 21.0004 6.61748 20.9929C4.82927 20.9743 3.3242 19.659 3.06342 17.8853C3.01871 17.5872 3.01126 17.2816 3.00753 16.9835C3.00008 16.0185 3.00753 15.0571 3.00753 14.092L3.00008 14.0995Z" fill="url(#paint0_linear_1_5053)"/>
<defs>
<linearGradient id="paint0_linear_1_5053" x1="12" y1="3" x2="1.65771" y2="21.021" gradientUnits="userSpaceOnUse">
<stop stop-color="#5070FC"/>
<stop offset="1" stop-color="#6480FD"/>
</linearGradient>
</defs>
</svg>
