<svg width="26" height="26" viewBox="0 0 26 26" fill="none" xmlns="http://www.w3.org/2000/svg">
<g clip-path="url(#clip0_1_5134)">
<path d="M5.41455 22.75V5.41667C5.41455 4.84203 5.64282 4.29093 6.04915 3.8846C6.45548 3.47827 7.00658 3.25 7.58122 3.25H18.4146C18.9892 3.25 19.5403 3.47827 19.9466 3.8846C20.3529 4.29093 20.5812 4.84203 20.5812 5.41667V22.75L17.3312 20.5833L15.1646 22.75L12.9979 20.5833L10.8312 22.75L8.66455 20.5833L5.41455 22.75Z" fill="url(#paint0_linear_1_5134)"/>
<path d="M9.75 15.1667L16.25 8.66666" stroke="white" stroke-width="1.5" stroke-linecap="round" stroke-linejoin="round"/>
<path d="M10.2917 9.74999C10.5908 9.74999 10.8333 9.50748 10.8333 9.20832C10.8333 8.90917 10.5908 8.66666 10.2917 8.66666C9.99251 8.66666 9.75 8.90917 9.75 9.20832C9.75 9.50748 9.99251 9.74999 10.2917 9.74999Z" fill="white" stroke="white" stroke-width="1.625" stroke-linecap="round" stroke-linejoin="round"/>
<path d="M15.7062 15.1667C16.0054 15.1667 16.2479 14.9242 16.2479 14.625C16.2479 14.3259 16.0054 14.0833 15.7062 14.0833C15.4071 14.0833 15.1646 14.3259 15.1646 14.625C15.1646 14.9242 15.4071 15.1667 15.7062 15.1667Z" fill="white" stroke="white" stroke-width="1.625" stroke-linecap="round" stroke-linejoin="round"/>
</g>
<defs>
<linearGradient id="paint0_linear_1_5134" x1="3.50049" y1="5" x2="8.09551" y2="27.9808" gradientUnits="userSpaceOnUse">
<stop stop-color="#61CBED"/>
<stop offset="1" stop-color="#1730B1"/>
</linearGradient>
<clipPath id="clip0_1_5134">
<rect width="26" height="26" fill="white"/>
</clipPath>
</defs>
</svg>
